<?xml version="1.0" encoding="utf-8"?>
<!-- Generator: Adobe Illustrator 17.0.0, SVG Export Plug-In . SVG Version: 6.00 Build 0)  -->
<!DOCTYPE svg PUBLIC "-//W3C//DTD SVG 1.1//EN" "http://www.w3.org/Graphics/SVG/1.1/DTD/svg11.dtd">
<svg version="1.1" id="Layer_1" xmlns="http://www.w3.org/2000/svg" xmlns:xlink="http://www.w3.org/1999/xlink" x="0px" y="0px"
	 width="636.623px" height="636.627px" viewBox="0 0 636.623 636.627" enable-background="new 0 0 636.623 636.627"
	 xml:space="preserve">
<g opacity="0.5">
	<g>
		<path d="M318.311,636.627c-85.023,0-164.958-33.11-225.08-93.232C33.11,483.272,0,403.337,0,318.313s33.11-164.96,93.232-225.082
			C153.353,33.11,233.288,0,318.311,0s164.959,33.11,225.08,93.232s93.231,140.057,93.231,225.082
			c0,85.023-33.11,164.959-93.231,225.081C483.27,603.517,403.335,636.627,318.311,636.627z M318.311,21
			C154.373,21,21,154.374,21,318.313s133.373,297.314,297.311,297.314c163.939,0,297.311-133.374,297.311-297.314
			C615.623,154.374,482.25,21,318.311,21z"/>
	</g>
	<path d="M517.438,119.199C464.253,66.014,393.54,36.724,318.325,36.724S172.396,66.015,119.211,119.2
		c-53.185,53.186-82.476,123.899-82.476,199.114s29.29,145.929,82.476,199.114c53.185,53.185,123.899,82.476,199.114,82.476
		s145.928-29.291,199.113-82.476c53.186-53.186,82.477-123.899,82.477-199.114C599.915,243.098,570.624,172.385,517.438,119.199z
		 M166.553,526.304l-12.956,17.769c-7.319-5.354-14.368-11.055-21.124-17.078l14.644-16.438
		C153.374,516.144,159.858,521.397,166.553,526.304z M168.132,527.446c6.213,4.482,12.598,8.676,19.145,12.561l-10.886,19.098
		c-7.255-4.293-14.302-8.898-21.118-13.809L168.132,527.446z M192.471,543.01c6.719,3.777,13.595,7.241,20.611,10.385l-9.01,20.08
		c-7.687-3.456-15.184-7.258-22.485-11.369L192.471,543.01z M214.841,554.176c7.635,3.353,15.431,6.328,23.367,8.916l-6.835,20.951
		c-8.651-2.838-17.116-6.087-25.375-9.725L214.841,554.176z M240.067,563.681c7.926,2.517,15.988,4.651,24.163,6.391l-4.603,21.613
		c-8.92-1.914-17.685-4.252-26.269-6.996L240.067,563.681z M266.129,570.473c8.139,1.667,16.386,2.942,24.722,3.821l-2.354,22.016
		c-9.081-0.967-18.037-2.363-26.84-4.183L266.129,570.473z M292.749,574.504c7.461,0.732,14.994,1.124,22.576,1.21v22.151
		c-8.335-0.088-16.587-0.53-24.734-1.336L292.749,574.504z M321.325,575.714c7.841-0.09,15.627-0.516,23.339-1.294l2.253,22.032
		c-8.425,0.859-16.965,1.322-25.592,1.413L321.325,575.714L321.325,575.714z M346.595,574.206
		c8.326-0.903,16.564-2.204,24.692-3.896l4.536,21.636c-8.804,1.848-17.759,3.273-26.843,4.268L346.595,574.206z M373.17,569.913
		c8.176-1.765,16.236-3.925,24.161-6.47l6.77,20.982c-8.572,2.77-17.324,5.134-26.234,7.074L373.17,569.913z M399.179,562.859
		c7.928-2.612,15.715-5.611,23.34-8.987l8.904,20.108c-8.248,3.663-16.703,6.938-25.346,9.802L399.179,562.859z M424.256,553.079
		c7.056-3.186,13.976-6.685,20.729-10.513l10.54,19.28c-7.208,4.077-14.604,7.857-22.189,11.294L424.256,553.079z M450.17,539.542
		c6.48-3.877,12.796-8.064,18.946-12.528l12.925,17.799c-6.88,4.986-13.995,9.666-21.325,14.023L450.17,539.542z M470.69,525.874
		c6.682-4.927,13.153-10.201,19.397-15.808l14.692,16.393c-6.736,6.042-13.767,11.76-21.068,17.134L470.69,525.874z M318.325,573.75
		c-140.849,0-255.437-114.588-255.437-255.436S177.477,62.876,318.325,62.876S573.76,177.464,573.76,318.313
		S459.173,573.75,318.325,573.75z M110.248,166.661l-17.771-12.956c5.351-7.322,11.048-14.374,17.068-21.134l16.438,14.643
		C120.4,153.475,115.151,159.963,110.248,166.661z M109.112,168.23c-4.421,6.134-8.56,12.434-12.398,18.893l-19.097-10.884
		c4.242-7.16,8.788-14.118,13.632-20.85L109.112,168.23z M74.613,181.433l19.094,10.883c-3.832,6.806-7.341,13.774-10.523,20.885
		l-20.08-9.002C66.598,196.413,70.446,188.822,74.613,181.433z M82.404,214.964c-3.348,7.637-6.319,15.435-8.902,23.372
		l-20.952-6.835c2.833-8.653,6.077-17.12,9.71-25.38L82.404,214.964z M72.919,240.178c-2.517,7.936-4.648,16.007-6.384,24.192
		l-21.61-4.618c1.908-8.914,4.238-17.672,6.975-26.251L72.919,240.178z M66.138,266.252c-1.663,8.137-2.934,16.383-3.808,24.716
		l-22.019-2.321c0.962-9.085,2.353-18.043,4.168-26.849L66.138,266.252z M62.121,292.884c-0.708,7.27-1.095,14.607-1.191,21.991
		H38.779c0.099-8.136,0.535-16.192,1.317-24.148L62.121,292.884z M60.919,320.875c0.078,8.042,0.513,16.026,1.316,23.933
		l-22.033,2.238c-0.883-8.614-1.355-17.347-1.435-26.171L60.919,320.875L60.919,320.875z M62.446,346.712
		c0.909,8.335,2.216,16.58,3.914,24.717l-21.638,4.517c-1.85-8.794-3.28-17.74-4.28-26.814L62.446,346.712z M66.755,373.302
		c1.77,8.174,3.934,16.233,6.483,24.157l-20.98,6.768c-2.775-8.57-5.144-17.32-7.088-26.228L66.755,373.302z M73.819,399.292
		c2.617,7.929,5.622,15.719,9.003,23.345l-20.103,8.912c-3.666-8.242-6.944-16.692-9.812-25.33L73.819,399.292z M83.619,424.377
		c3.09,6.829,6.475,13.528,10.165,20.075L74.5,454.993c-3.94-7.002-7.602-14.18-10.94-21.536L83.619,424.377z M96.796,449.644
		c3.991,6.704,8.306,13.238,12.924,19.592l-17.816,12.898c-5.132-7.073-9.938-14.395-14.403-21.943L96.796,449.644z
		 M110.843,470.788c4.932,6.681,10.211,13.151,15.822,19.395l-16.384,14.7c-6.044-6.732-11.765-13.76-17.143-21.057L110.843,470.788
		z M469.862,110.153l12.949-17.777c7.322,5.346,14.376,11.038,21.137,17.053l-14.627,16.453
		C483.057,120.3,476.563,115.054,469.862,110.153z M468.295,109.019c-6.063-4.364-12.289-8.456-18.669-12.252l10.883-19.097
		c7.077,4.198,13.958,8.691,20.617,13.478L468.295,109.019z M444.434,93.757c-6.883-3.879-13.93-7.429-21.123-10.644L432.3,63.03
		c7.872,3.529,15.548,7.417,23.017,11.633L444.434,93.757z M421.549,82.339c-7.638-3.344-15.437-6.31-23.374-8.889l6.811-20.96
		c8.655,2.829,17.125,6.068,25.387,9.696L421.549,82.339z M396.32,72.863c-7.933-2.511-15.999-4.636-24.181-6.367l4.588-21.618
		c8.92,1.903,17.685,4.23,26.27,6.964L396.32,72.863z M370.251,66.097c-8.141-1.659-16.391-2.925-24.726-3.795l2.32-22.02
		c9.083,0.958,18.04,2.342,26.845,4.151L370.251,66.097z M343.616,62.098c-7.368-0.714-14.805-1.1-22.291-1.185V38.762
		c8.232,0.087,16.383,0.521,24.433,1.309L343.616,62.098z M315.325,60.913c-7.938,0.09-15.818,0.528-23.622,1.325l-2.271-22.029
		c8.523-0.879,17.163-1.355,25.893-1.448V60.913z M289.781,62.45c-8.332,0.913-16.574,2.225-24.706,3.927l-4.533-21.634
		c8.796-1.856,17.744-3.292,26.821-4.296L289.781,62.45z M263.201,66.772c-8.172,1.774-16.23,3.942-24.151,6.496l-6.787-20.973
		c8.57-2.779,17.319-5.154,26.227-7.104L263.201,66.772z M237.208,73.854c-7.923,2.621-15.708,5.627-23.328,9.011l-8.938-20.095
		c8.245-3.672,16.697-6.957,25.337-9.831L237.208,73.854z M212.134,83.666c-6.838,3.099-13.548,6.491-20.102,10.192l-10.541-19.283
		c7.005-3.948,14.189-7.616,21.55-10.961L212.134,83.666z M186.842,96.873c-6.691,3.989-13.211,8.303-19.552,12.917l-12.913-17.806
		c7.065-5.132,14.377-9.94,21.917-14.405L186.842,96.873z M165.737,110.914c-6.677,4.934-13.143,10.215-19.381,15.829
		l-14.718-16.369c6.731-6.049,13.756-11.775,21.051-17.157L165.737,110.914z M575.712,314.312
		c-0.115-7.645-0.557-15.237-1.328-22.759l22.027-2.286c0.856,8.247,1.334,16.604,1.453,25.045H575.712z M574.172,289.631
		c-0.917-8.328-2.233-16.567-3.938-24.696l21.628-4.563c1.861,8.797,3.303,17.747,4.314,26.825L574.172,289.631z M569.835,263.045
		c-1.779-8.17-3.951-16.226-6.509-24.144l20.972-6.793c2.783,8.569,5.164,17.318,7.119,26.225L569.835,263.045z M562.738,237.068
		c-2.625-7.923-5.636-15.706-9.024-23.325l20.092-8.953c3.677,8.242,6.967,16.692,9.845,25.329L562.738,237.068z M552.912,211.993
		c-3.057-6.737-6.399-13.347-10.042-19.808l19.285-10.543c3.889,6.911,7.504,13.995,10.807,21.252L552.912,211.993z
		 M539.859,186.993c-4.038-6.784-8.407-13.394-13.086-19.818l17.784-12.941c5.205,7.156,10.077,14.566,14.598,22.21L539.859,186.993
		z M525.638,165.606c-4.938-6.674-10.223-13.137-15.84-19.372l16.37-14.718c6.052,6.728,11.781,13.749,17.167,21.042
		L525.638,165.606z M526.24,470.188l17.749,12.984c-5.357,7.312-11.059,14.356-17.084,21.106l-16.43-14.652
		C516.069,483.369,521.328,476.884,526.24,470.188z M527.372,468.625c4.486-6.211,8.684-12.593,12.572-19.137l19.099,10.884
		c-4.297,7.254-8.907,14.299-13.821,21.112L527.372,468.625z M542.95,444.296c3.783-6.72,7.25-13.599,10.399-20.615l20.073,9.029
		c-3.457,7.682-7.264,15.172-11.377,22.469L542.95,444.296z M554.133,421.925c3.356-7.633,6.336-15.428,8.929-23.362l20.945,6.849
		c-2.842,8.649-6.096,17.113-9.738,25.37L554.133,421.925z M563.646,396.713c2.524-7.931,4.664-15.996,6.409-24.177l21.607,4.631
		c-1.917,8.915-4.259,17.672-7.007,26.251L563.646,396.713z M570.453,370.652c1.671-8.135,2.952-16.38,3.835-24.712l22.018,2.337
		c-0.972,9.085-2.373,18.042-4.197,26.848L570.453,370.652z M574.501,344.017c0.771-7.831,1.176-15.74,1.235-23.704h22.153
		c-0.062,8.73-0.515,17.37-1.363,25.895L574.501,344.017z M524.768,129.962l-16.263,14.851c-2.646-2.894-5.355-5.744-8.147-8.535
		c-3.13-3.13-6.329-6.166-9.589-9.113l14.736-16.354C512.229,116.883,518.66,123.272,524.768,129.962z M130.085,111.767
		l14.842,16.27c-2.93,2.676-5.813,5.418-8.637,8.242c-3.098,3.098-6.105,6.263-9.024,9.487l-16.337-14.751
		C117.002,124.295,123.393,117.87,130.085,111.767z M111.674,506.442l16.277-14.834c2.706,2.965,5.481,5.883,8.338,8.74
		c3.064,3.065,6.193,6.041,9.382,8.931l-14.761,16.329C124.196,519.531,117.774,513.136,111.674,506.442z M506.343,525.068
		l-14.826-16.286c3.001-2.735,5.952-5.543,8.843-8.434c3.031-3.031,5.977-6.124,8.837-9.277l16.324,14.77
		C519.439,512.553,513.04,518.972,506.343,525.068z"/>
	<g>
		<path d="M412.763,533.504c0.26-0.295,0.504-0.668,0.742-1.124c0.391-0.753,0.627-1.547,0.703-2.363
			c0.109-1.084-0.008-2.351-0.348-3.76c-0.328-1.347-0.773-2.908-1.324-4.644c-1.996-6.108-5.111-15.428-9.523-28.499
			c-4.205-12.457-8.721-25.757-13.43-39.544l0.518-0.274c9.162,12.306,18,24.174,26.516,35.601
			c8.648,11.608,14.5,19.446,17.549,23.513c0.777,1.032,1.559,1.914,2.326,2.624c0.779,0.719,1.641,1.343,2.562,1.857
			c0.818,0.452,1.617,0.707,2.373,0.761c0.174,0.012,0.34,0.018,0.5,0.018c0.256,0,0.5-0.016,0.73-0.047l1.289,2.428l-11.258,5.977
			l-1.25-2.357c0.805-0.64,1.453-1.313,1.936-2.01c0.506-0.732,0.926-1.94,0.078-3.538c-0.221-0.415-0.512-0.889-0.863-1.406
			c-0.344-0.504-0.623-0.905-0.84-1.204c-2.375-3.179-6.23-8.344-11.574-15.508l-22.814-30.599l-1.488,0.776
			c2.381,7.168,5.225,15.619,8.455,25.117c3.262,9.59,5.555,16.262,6.818,19.831c1.244,3.518,2.137,5.861,2.725,7.166
			c0.594,1.319,1.086,2.341,1.502,3.123c0.494,0.931,1.102,1.64,1.807,2.106c0.68,0.45,1.436,0.753,2.246,0.898
			c0.422,0.062,0.811,0.092,1.184,0.092c0.328,0,0.652-0.023,0.965-0.067c0.393-0.058,0.783-0.132,1.166-0.222l1.275,2.403
			l-9.969,5.291L412.763,533.504z"/>
	</g>
	<g>
		<path d="M388.413,179.555l1.303-2.348c0.334,0.112,0.73,0.243,1.188,0.393c0.66,0.218,1.221,0.325,1.711,0.325
			c0.232,0,0.451-0.025,0.652-0.074c0.887-0.233,1.713-0.742,2.469-1.515c0.709-0.724,1.453-1.794,2.271-3.27l29.828-53.734
			c0.701-1.26,1.215-2.383,1.527-3.336c0.352-1.074,0.361-2.152,0.029-3.206c-0.215-0.715-0.572-1.482-1.059-2.269
			c-0.314-0.509-0.613-0.923-0.904-1.252l1.332-2.4l12.258,6.805l-1.293,2.331c-0.381-0.114-0.807-0.207-1.289-0.283
			c-0.451-0.07-0.897-0.105-1.32-0.105c-0.35,0-0.693,0.024-1.023,0.071c-0.988,0.147-1.914,0.726-2.756,1.722
			c-0.742,0.878-1.455,1.926-2.117,3.117l-29.799,53.682c-0.666,1.199-1.156,2.346-1.459,3.41c-0.328,1.15-0.365,2.212-0.115,3.158
			c0.188,0.578,0.539,1.218,1.092,2.004c0.35,0.5,0.693,0.909,1.033,1.232l-1.301,2.344L388.413,179.555z"/>
	</g>
	<g>
		<g>
			<path d="M446.259,229.553l2.385-1.283c0.186,0.216,0.402,0.467,0.65,0.751c0.594,0.691,1.178,1.102,1.777,1.254
				c0.344,0.082,0.699,0.122,1.068,0.122c0.529,0,1.103-0.083,1.709-0.247c0.957-0.259,2.141-0.771,3.617-1.565l54.127-29.109
				c1.262-0.679,2.301-1.33,3.086-1.934c0.879-0.677,1.5-1.506,1.846-2.462c0.246-0.652,0.41-1.41,0.484-2.241
				c0.047-0.517,0.053-0.963,0.018-1.345l2.447-1.316L525,200.455l-2.371,1.275c-0.227-0.241-0.498-0.485-0.814-0.736
				c-0.58-0.459-1.201-0.811-1.85-1.047c-0.369-0.132-0.771-0.198-1.201-0.198c-0.578,0-1.225,0.12-1.922,0.357
				c-1.072,0.362-2.223,0.872-3.418,1.515l-54.072,29.081c-1.201,0.645-2.234,1.324-3.076,2.017
				c-0.904,0.747-1.539,1.551-1.887,2.39c-0.189,0.541-0.283,1.2-0.307,2.061c-0.014,0.524,0.016,0.98,0.09,1.378l-2.387,1.284
				L446.259,229.553z"/>
		</g>
		<g>
			<path d="M454.167,244.258l2.385-1.282c0.188,0.217,0.402,0.467,0.65,0.751c0.596,0.691,1.178,1.103,1.777,1.254
				c0.344,0.082,0.699,0.122,1.068,0.122c0.529,0,1.103-0.083,1.707-0.246c0.965-0.262,2.15-0.774,3.621-1.566l54.125-29.109
				c1.266-0.68,2.303-1.331,3.088-1.934c0.879-0.676,1.5-1.504,1.844-2.462c0.246-0.649,0.41-1.407,0.484-2.242
				c0.047-0.517,0.053-0.962,0.018-1.345l2.447-1.315l5.527,10.277l-2.369,1.274c-0.229-0.241-0.5-0.485-0.816-0.736
				c-0.582-0.46-1.205-0.812-1.848-1.047c-0.371-0.132-0.773-0.198-1.203-0.198c-0.578,0-1.225,0.12-1.922,0.357
				c-1.07,0.362-2.219,0.872-3.418,1.516l-54.072,29.081c-1.203,0.648-2.238,1.326-3.076,2.018
				c-0.902,0.745-1.537,1.549-1.885,2.389c-0.189,0.538-0.285,1.198-0.309,2.062c-0.012,0.523,0.018,0.979,0.092,1.377l-2.387,1.283
				L454.167,244.258z"/>
		</g>
	</g>
	<g>
		<g>
			<path d="M553.495,304.037c-0.086-0.32-0.209-0.663-0.369-1.035c-0.295-0.681-0.676-1.285-1.133-1.798
				c-0.611-0.678-1.561-1.127-2.824-1.34c-1.117-0.188-2.371-0.284-3.728-0.284h-61.399c-1.367,0-2.6,0.108-3.662,0.32
				c-1.15,0.228-2.09,0.636-2.793,1.211c-0.424,0.385-0.82,0.921-1.248,1.67c-0.26,0.454-0.449,0.87-0.574,1.255h-2.709v-11.669
				h2.709c0.061,0.278,0.133,0.601,0.215,0.968c0.197,0.891,0.516,1.529,0.971,1.946c0.633,0.562,1.473,0.965,2.506,1.206
				c0.969,0.226,2.254,0.336,3.93,0.336h61.457c1.434,0,2.656-0.081,3.635-0.241c1.094-0.18,2.033-0.616,2.791-1.294
				c0.525-0.46,1.029-1.049,1.488-1.745c0.285-0.434,0.502-0.824,0.652-1.177h2.777v11.669h-2.692V304.037z"/>
		</g>
		<g>
			<path d="M553.495,320.735c-0.086-0.32-0.209-0.663-0.369-1.035c-0.295-0.681-0.676-1.286-1.133-1.798
				c-0.611-0.678-1.561-1.127-2.824-1.34c-1.117-0.189-2.371-0.284-3.728-0.284h-61.399c-1.367,0-2.6,0.108-3.662,0.32
				c-1.15,0.228-2.09,0.636-2.793,1.211c-0.424,0.385-0.82,0.921-1.248,1.671c-0.26,0.454-0.449,0.87-0.574,1.256h-2.709v-11.671
				h2.709c0.061,0.278,0.133,0.601,0.215,0.968c0.197,0.891,0.516,1.529,0.971,1.946c0.633,0.562,1.473,0.965,2.506,1.206
				c0.969,0.226,2.254,0.336,3.93,0.336h61.457c1.434,0,2.656-0.082,3.635-0.241c1.094-0.18,2.033-0.616,2.791-1.295
				c0.525-0.459,1.029-1.049,1.488-1.745c0.285-0.434,0.502-0.824,0.652-1.177h2.777v11.671h-2.692V320.735z"/>
		</g>
		<g>
			<path d="M553.495,337.433c-0.086-0.32-0.209-0.663-0.369-1.035c-0.295-0.682-0.676-1.286-1.133-1.798
				c-0.609-0.678-1.561-1.127-2.826-1.34c-1.117-0.188-2.371-0.284-3.726-0.284h-61.399c-1.361,0-2.594,0.107-3.662,0.32
				c-1.148,0.229-2.09,0.636-2.793,1.212c-0.424,0.386-0.82,0.922-1.248,1.67c-0.26,0.454-0.449,0.87-0.574,1.255h-2.709v-11.67
				h2.709c0.061,0.278,0.133,0.602,0.215,0.969c0.197,0.891,0.516,1.528,0.971,1.946c0.633,0.562,1.473,0.966,2.506,1.206
				c0.965,0.226,2.25,0.336,3.93,0.336h61.457c1.436,0,2.658-0.081,3.635-0.241c1.094-0.179,2.033-0.614,2.791-1.295
				c0.525-0.458,1.027-1.047,1.488-1.743c0.285-0.434,0.502-0.824,0.652-1.178h2.777v11.67H553.495z"/>
		</g>
	</g>
	<g>
		<g>
			<path d="M505.352,466.317c0.086-0.272,0.182-0.588,0.293-0.946c0.27-0.875,0.309-1.586,0.119-2.174
				c-0.27-0.803-0.801-1.568-1.578-2.288c-0.73-0.677-1.791-1.409-3.246-2.239l-53.389-30.442c-1.244-0.71-2.346-1.245-3.275-1.591
				c-0.668-0.248-1.336-0.374-1.986-0.374c-0.363,0-0.727,0.039-1.08,0.116c-0.682,0.138-1.41,0.399-2.156,0.777
				c-0.463,0.235-0.844,0.467-1.15,0.699l-2.412-1.376l5.779-10.138l2.338,1.333c-0.084,0.322-0.147,0.682-0.191,1.083
				c-0.08,0.735-0.049,1.449,0.094,2.122c0.193,0.89,0.797,1.751,1.791,2.564c0.881,0.72,1.922,1.425,3.098,2.094l53.336,30.413
				c1.184,0.677,2.309,1.194,3.34,1.537c0.789,0.264,1.535,0.397,2.217,0.397c0.277,0,0.549-0.022,0.809-0.065
				c0.559-0.125,1.168-0.395,1.912-0.834c0.449-0.266,0.822-0.532,1.119-0.806l2.354,1.342l-5.779,10.138L505.352,466.317z"/>
		</g>
		<g>
			<path d="M513.624,451.813c0.084-0.272,0.182-0.589,0.293-0.949c0.27-0.869,0.309-1.581,0.121-2.171
				c-0.271-0.803-0.801-1.568-1.58-2.289c-0.727-0.675-1.789-1.407-3.248-2.238l-53.387-30.442c-1.242-0.71-2.344-1.245-3.275-1.592
				c-0.668-0.248-1.336-0.373-1.99-0.373c-0.359,0-0.723,0.038-1.076,0.114c-0.686,0.14-1.414,0.402-2.156,0.778
				c-0.463,0.236-0.844,0.468-1.15,0.7l-2.414-1.377l5.781-10.138l2.338,1.334c-0.084,0.32-0.146,0.68-0.191,1.082
				c-0.082,0.74-0.049,1.454,0.094,2.123c0.195,0.892,0.797,1.753,1.791,2.564c0.871,0.712,1.912,1.417,3.098,2.093l53.336,30.414
				c1.189,0.678,2.312,1.194,3.338,1.537c0.791,0.264,1.535,0.398,2.217,0.398c0.277,0,0.551-0.023,0.811-0.066
				c0.561-0.125,1.17-0.395,1.912-0.833c0.449-0.266,0.822-0.532,1.119-0.807l2.354,1.343l-5.781,10.137L513.624,451.813z"/>
		</g>
		<g>
			<path d="M521.896,437.308c0.084-0.272,0.182-0.589,0.293-0.949c0.27-0.868,0.309-1.579,0.121-2.17
				c-0.272-0.802-0.801-1.567-1.58-2.289c-0.728-0.676-1.791-1.408-3.248-2.239l-53.387-30.442c-1.244-0.71-2.346-1.245-3.275-1.591
				c-0.668-0.248-1.338-0.374-1.99-0.374c-0.361,0-0.723,0.039-1.076,0.115c-0.686,0.14-1.414,0.402-2.156,0.778
				c-0.463,0.235-0.844,0.467-1.15,0.699l-2.414-1.377l5.781-10.137l2.338,1.333c-0.084,0.321-0.146,0.681-0.191,1.083
				c-0.082,0.735-0.051,1.449,0.094,2.123c0.193,0.89,0.797,1.751,1.791,2.563c0.881,0.721,1.924,1.425,3.098,2.093l53.336,30.413
				c1.186,0.678,2.309,1.194,3.34,1.537c0.789,0.264,1.535,0.397,2.217,0.397c0.277,0,0.549-0.022,0.809-0.065
				c0.561-0.127,1.17-0.396,1.91-0.834c0.451-0.265,0.822-0.532,1.121-0.806l2.353,1.342l-5.781,10.138L521.896,437.308z"/>
		</g>
		<g>
			<path d="M530.167,422.803c0.084-0.271,0.182-0.587,0.293-0.947c0.268-0.874,0.309-1.585,0.119-2.174
				c-0.272-0.802-0.801-1.567-1.58-2.287c-0.725-0.674-1.787-1.406-3.244-2.238l-53.389-30.442c-1.244-0.71-2.346-1.246-3.275-1.592
				c-0.668-0.248-1.336-0.373-1.99-0.373c-0.361,0-0.723,0.038-1.076,0.114c-0.686,0.14-1.414,0.402-2.156,0.778
				c-0.463,0.236-0.846,0.468-1.15,0.7l-2.414-1.377l5.781-10.138l2.338,1.333c-0.084,0.321-0.147,0.68-0.191,1.083
				c-0.082,0.734-0.051,1.448,0.092,2.122c0.197,0.894,0.799,1.754,1.791,2.565c0.871,0.712,1.914,1.417,3.098,2.093l53.336,30.414
				c1.191,0.678,2.315,1.195,3.342,1.536c0.787,0.264,1.533,0.398,2.215,0.398c0.277,0,0.551-0.023,0.811-0.066
				c0.56-0.126,1.17-0.396,1.91-0.833c0.451-0.266,0.822-0.532,1.121-0.807l2.354,1.342l-5.781,10.138L530.167,422.803z"/>
		</g>
	</g>
	<g>
		<g>
			<path d="M327.242,556.237v-2.691c0.32-0.086,0.663-0.209,1.035-0.369c0.681-0.296,1.286-0.676,1.798-1.133
				c0.678-0.611,1.127-1.56,1.341-2.825c0.188-1.114,0.283-2.368,0.283-3.729v-61.397c0-1.366-0.107-2.599-0.319-3.663
				c-0.229-1.15-0.638-2.09-1.212-2.793c-0.385-0.423-0.921-0.819-1.67-1.247c-0.454-0.26-0.87-0.45-1.256-0.574v-2.709h11.67v2.708
				c-0.278,0.06-0.602,0.133-0.969,0.215c-0.891,0.198-1.528,0.517-1.946,0.972c-0.561,0.631-0.964,1.471-1.205,2.506
				c-0.227,0.967-0.337,2.252-0.337,3.929v61.457c0,1.438,0.081,2.661,0.242,3.636c0.179,1.094,0.614,2.033,1.294,2.791
				c0.457,0.523,1.047,1.026,1.744,1.487c0.434,0.285,0.824,0.502,1.177,0.652v2.778L327.242,556.237L327.242,556.237z"/>
		</g>
		<g>
			<path d="M314.078,556.237v-2.689c0.851-0.193,1.602-0.486,2.239-0.874c0.678-0.415,1.486-1.281,1.486-3.059
				c0-0.462-0.029-1.012-0.087-1.634c-0.056-0.605-0.106-1.09-0.148-1.454c-0.518-3.919-1.355-10.289-2.512-19.122l-4.939-37.724
				l-1.685-0.011c-1.07,7.452-2.302,16.25-3.662,26.149c-1.375,10.012-2.312,16.979-2.785,20.712
				c-0.46,3.625-0.733,6.181-0.811,7.596c-0.077,1.41-0.116,2.572-0.116,3.455c0,1.034,0.171,1.929,0.507,2.658
				c0.332,0.715,0.78,1.338,1.335,1.852c0.547,0.473,1.094,0.821,1.649,1.056c0.303,0.128,0.612,0.241,0.924,0.34v2.749h-9.343
				v-2.771c0.315-0.146,0.648-0.362,1.003-0.65c0.598-0.485,1.097-1.08,1.482-1.768c0.512-0.903,0.927-2.069,1.23-3.464
				c0.29-1.333,0.578-2.918,0.856-4.713c0.938-6.359,2.353-16.328,4.208-29.636c1.836-13.172,3.745-27.032,5.676-41.205h0.247
				c1.974,15.159,3.881,29.778,5.721,43.858c1.87,14.309,3.139,23.975,3.809,28.996c0.172,1.269,0.406,2.409,0.696,3.389
				c0.297,0.995,0.694,1.946,1.18,2.828c0.438,0.785,0.94,1.39,1.497,1.8c0.321,0.235,0.629,0.419,0.929,0.553v2.783H314.078z"/>
		</g>
	</g>
	<g>
		<g>
			<path d="M217.608,535.159l1.397-2.301c0.319,0.093,0.676,0.165,1.077,0.222c0.331,0.045,0.659,0.068,0.977,0.068l0,0
				c0.39,0,0.776-0.034,1.148-0.104c0.896-0.171,1.774-0.749,2.612-1.72c0.741-0.855,1.474-1.878,2.178-3.039l31.874-52.476
				c0.71-1.169,1.257-2.277,1.629-3.296c0.401-1.102,0.54-2.116,0.414-3.017c-0.11-0.563-0.363-1.18-0.78-1.933
				c-0.253-0.458-0.51-0.837-0.775-1.142l1.407-2.315l9.974,6.058l-1.406,2.315c-0.27-0.093-0.583-0.199-0.94-0.318
				c-0.546-0.185-1.023-0.276-1.457-0.276c-0.253,0-0.491,0.032-0.709,0.095c-0.811,0.25-1.591,0.759-2.332,1.516
				c-0.697,0.711-1.458,1.753-2.328,3.185l-31.905,52.526c-0.744,1.224-1.31,2.312-1.681,3.232c-0.415,1.029-0.53,2.058-0.343,3.058
				c0.12,0.687,0.362,1.423,0.719,2.177c0.222,0.47,0.443,0.857,0.667,1.169l-1.442,2.376L217.608,535.159z"/>
		</g>
		<g>
			<path d="M203.337,526.49l1.397-2.3c0.317,0.092,0.674,0.165,1.075,0.221c0.332,0.046,0.66,0.069,0.979,0.069
				c0.39,0,0.776-0.034,1.147-0.104c0.896-0.17,1.773-0.748,2.612-1.719c0.741-0.856,1.474-1.879,2.178-3.04l31.874-52.476
				c0.71-1.169,1.258-2.278,1.628-3.297c0.401-1.102,0.54-2.116,0.415-3.016c-0.109-0.561-0.362-1.179-0.78-1.933
				c-0.253-0.458-0.51-0.837-0.775-1.143l1.407-2.316l9.974,6.059l-1.406,2.314c-0.27-0.092-0.583-0.198-0.94-0.317
				c-0.546-0.185-1.024-0.276-1.457-0.276c-0.253,0-0.492,0.032-0.711,0.096c-0.808,0.247-1.588,0.756-2.33,1.515
				c-0.695,0.71-1.457,1.751-2.327,3.184l-31.905,52.526c-0.745,1.227-1.311,2.314-1.681,3.231c-0.415,1.03-0.53,2.06-0.343,3.059
				c0.12,0.688,0.363,1.425,0.719,2.177c0.223,0.47,0.443,0.857,0.667,1.169l-1.443,2.375L203.337,526.49z"/>
		</g>
		<g>
			<path d="M192.085,519.655l1.396-2.299c0.827,0.276,1.62,0.416,2.367,0.416c0.797-0.003,1.936-0.325,2.858-1.844
				c0.24-0.396,0.501-0.881,0.773-1.441c0.266-0.547,0.475-0.986,0.628-1.318c1.593-3.619,4.184-9.498,7.781-17.648
				c3.597-8.152,8.718-19.755,15.363-34.806l-1.434-0.884c-4.817,5.855-10.438,12.735-16.706,20.448
				c-6.346,7.809-10.764,13.278-13.132,16.256c-2.275,2.859-3.835,4.902-4.636,6.071c-0.814,1.189-1.434,2.135-1.894,2.893
				c-0.537,0.884-0.855,1.737-0.946,2.534c-0.088,0.783-0.028,1.549,0.179,2.276c0.221,0.688,0.508,1.271,0.862,1.76
				c0.194,0.267,0.399,0.523,0.613,0.769l-1.427,2.351l-7.986-4.852l1.438-2.367c0.133,0.015,0.272,0.022,0.421,0.022
				c0.232,0,0.491-0.019,0.775-0.058c0.76-0.104,1.495-0.353,2.184-0.741c0.908-0.508,1.868-1.29,2.85-2.323
				c0.942-0.991,2.012-2.196,3.179-3.583c4.149-5.006,10.534-12.791,18.981-23.146c8.417-10.315,17.164-21.073,26.242-32.27
				l0.211,0.128c-6.183,13.982-12.142,27.467-17.879,40.455c-5.83,13.2-9.764,22.12-11.798,26.76
				c-0.515,1.181-0.906,2.276-1.164,3.259c-0.263,1.006-0.418,2.024-0.46,3.029c-0.034,0.896,0.082,1.673,0.345,2.313
				c0.152,0.369,0.321,0.687,0.508,0.957l-1.445,2.379L192.085,519.655z"/>
		</g>
	</g>
	<g>
		<g>
			<path d="M122.149,453.047l2.314-1.373c0.239,0.232,0.52,0.464,0.848,0.701c0.6,0.435,1.235,0.761,1.89,0.97
				c0.326,0.101,0.672,0.15,1.036,0.15c0.624,0,1.323-0.148,2.08-0.441c1.054-0.406,2.181-0.964,3.35-1.657l52.805-31.326
				c1.176-0.698,2.181-1.42,2.987-2.143c0.872-0.784,1.472-1.615,1.784-2.468c0.167-0.547,0.234-1.211,0.22-2.073
				c-0.008-0.523-0.057-0.978-0.147-1.372l2.33-1.383l5.954,10.037l-2.329,1.382c-0.195-0.209-0.421-0.45-0.68-0.724
				c-0.624-0.665-1.223-1.051-1.829-1.178c-0.284-0.056-0.57-0.082-0.862-0.082c-0.591,0-1.232,0.108-1.908,0.323
				c-0.948,0.3-2.11,0.86-3.55,1.715l-52.855,31.356c-1.234,0.733-2.245,1.427-3.003,2.062c-0.85,0.713-1.435,1.567-1.741,2.538
				c-0.217,0.66-0.349,1.424-0.39,2.26c-0.024,0.519-0.011,0.965,0.04,1.346l-2.39,1.418L122.149,453.047z"/>
		</g>
		<g>
			<path d="M113.629,438.687l2.315-1.374c0.238,0.23,0.519,0.463,0.846,0.701c0.598,0.434,1.234,0.76,1.891,0.969
				c0.324,0.101,0.671,0.151,1.036,0.151l0,0c0.622,0,1.32-0.147,2.078-0.44c1.055-0.407,2.183-0.965,3.352-1.658l52.804-31.327
				c1.171-0.693,2.177-1.415,2.988-2.144c0.87-0.781,1.471-1.61,1.784-2.465c0.167-0.549,0.234-1.212,0.221-2.073
				c-0.008-0.524-0.057-0.979-0.147-1.374l2.33-1.383l5.955,10.037l-2.329,1.382c-0.194-0.209-0.421-0.45-0.68-0.724
				c-0.625-0.665-1.224-1.051-1.829-1.178c-0.283-0.056-0.568-0.082-0.862-0.082c-0.588,0-1.23,0.108-1.907,0.322
				c-0.948,0.299-2.11,0.86-3.552,1.716l-52.855,31.358c-1.23,0.728-2.241,1.423-3.003,2.062c-0.85,0.712-1.435,1.565-1.741,2.537
				c-0.217,0.66-0.349,1.424-0.389,2.259c-0.024,0.518-0.012,0.965,0.04,1.346l-2.39,1.418L113.629,438.687z"/>
		</g>
		<g>
			<path d="M105.109,424.326l2.315-1.374c0.238,0.231,0.519,0.465,0.847,0.702c0.601,0.436,1.237,0.762,1.891,0.969
				c0.324,0.101,0.67,0.151,1.035,0.151c0.623,0,1.322-0.148,2.079-0.441c1.048-0.404,2.176-0.962,3.35-1.657l52.805-31.327
				c1.172-0.695,2.177-1.416,2.987-2.143c0.872-0.783,1.472-1.612,1.784-2.467c0.167-0.547,0.234-1.211,0.22-2.073
				c-0.008-0.523-0.057-0.978-0.147-1.372l2.33-1.383l5.954,10.036l-2.329,1.382c-0.195-0.208-0.421-0.449-0.68-0.723
				c-0.625-0.665-1.224-1.052-1.829-1.178c-0.284-0.056-0.57-0.082-0.863-0.082c-0.589,0-1.231,0.108-1.906,0.322
				c-0.945,0.299-2.107,0.859-3.55,1.715l-52.856,31.357c-1.23,0.73-2.24,1.424-3.002,2.062c-0.849,0.712-1.435,1.565-1.741,2.538
				c-0.217,0.66-0.349,1.424-0.39,2.259c-0.024,0.52-0.011,0.966,0.04,1.347l-2.39,1.418L105.109,424.326z"/>
		</g>
		<g>
			<path d="M98.392,413.004l2.313-1.373c0.601,0.634,1.235,1.13,1.894,1.479c0.429,0.227,0.888,0.341,1.366,0.341
				c0.645,0,1.325-0.21,2.022-0.623c0.403-0.24,0.861-0.546,1.361-0.908c0.492-0.358,0.882-0.647,1.174-0.868
				c3.107-2.447,8.159-6.417,15.166-11.919c7.007-5.504,16.982-13.336,29.923-23.495l-0.851-1.454
				c-7.053,2.922-15.249,6.352-24.358,10.192c-9.317,3.928-15.788,6.677-19.232,8.172c-3.356,1.456-5.692,2.525-6.947,3.179
				c-1.286,0.671-2.277,1.216-3.031,1.664c-0.891,0.528-1.573,1.131-2.027,1.792c-0.445,0.649-0.752,1.353-0.911,2.091
				c-0.128,0.714-0.149,1.362-0.067,1.958c0.045,0.326,0.105,0.65,0.18,0.968l-2.366,1.403l-4.767-8.036l2.383-1.414
				c0.287,0.197,0.643,0.373,1.071,0.531c0.673,0.249,1.384,0.375,2.113,0.375l0.166-0.002c1.035-0.021,2.25-0.259,3.605-0.71
				c1.307-0.436,2.817-0.997,4.491-1.668c5.992-2.456,15.288-6.325,27.634-11.502c12.268-5.143,25.162-10.572,38.334-16.143
				l0.126,0.213c-12.031,9.432-23.63,18.532-34.801,27.298c-11.352,8.908-19.018,14.931-22.995,18.069
				c-1.01,0.801-1.87,1.584-2.559,2.329c-0.704,0.763-1.319,1.589-1.83,2.456c-0.452,0.776-0.716,1.517-0.784,2.205
				c-0.039,0.396-0.039,0.755-0.001,1.082l-2.394,1.421L98.392,413.004z"/>
		</g>
	</g>
	<g>
		<g>
			<path d="M160.774,343.539c-0.061-0.278-0.133-0.601-0.216-0.968c-0.198-0.892-0.516-1.529-0.972-1.947
				c-0.632-0.562-1.472-0.965-2.505-1.205c-0.972-0.227-2.257-0.337-3.929-0.337H91.695c-1.432,0-2.655,0.081-3.634,0.242
				c-1.096,0.18-2.035,0.615-2.791,1.293c-0.526,0.461-1.029,1.05-1.488,1.745c-0.285,0.434-0.502,0.824-0.652,1.177h-2.78V331.87
				h2.691c0.087,0.319,0.21,0.663,0.37,1.034c0.293,0.679,0.674,1.284,1.131,1.798c0.613,0.678,1.562,1.127,2.826,1.341
				c1.114,0.188,2.369,0.283,3.729,0.283h61.398c1.371,0,2.604-0.107,3.663-0.319c1.149-0.228,2.089-0.636,2.792-1.211
				c0.422-0.384,0.818-0.92,1.247-1.669c0.26-0.455,0.45-0.871,0.574-1.257h2.71v11.669H160.774z"/>
		</g>
		<g>
			<path d="M160.735,328.223c-0.082-0.256-0.183-0.537-0.304-0.849c-0.277-0.72-0.752-1.32-1.411-1.78
				c-1.191-0.775-2.472-1.395-3.831-1.855c-1.315-0.446-2.876-0.899-4.638-1.347c-3.53-0.898-7.944-2.051-13.118-3.428
				c-5.193-1.38-10.017-2.627-14.337-3.704l-0.201-0.05l-0.202,0.048c-3.386,0.81-7.68,1.844-12.88,3.1
				c-5.199,1.255-10.766,2.595-16.702,4.019c-2.56,0.611-4.323,1.079-5.388,1.43c-1.122,0.37-2.11,0.874-2.937,1.497
				c-0.555,0.422-0.996,1.002-1.313,1.726c-0.147,0.336-0.267,0.636-0.36,0.9H80.35v-12.045h2.676
				c0.16,0.684,0.443,1.383,0.847,2.088c0.65,1.135,1.702,1.734,3.04,1.734c0.818,0,2.169-0.176,4.13-0.538
				c1.892-0.348,3.943-0.766,6.097-1.24c2.232-0.488,4.706-1.032,7.418-1.633c2.7-0.598,5.865-1.338,9.406-2.202l0.011-1.65
				c-6.071-1.567-11.63-2.94-16.524-4.081c-5.016-1.169-8.209-1.737-9.761-1.737c-1.481,0-2.615,0.335-3.37,0.997
				c-0.62,0.543-1.053,1.361-1.291,2.438H80.35v-9.368h2.722c0.086,0.265,0.201,0.555,0.347,0.874
				c0.316,0.688,0.771,1.268,1.353,1.727c1.093,0.797,2.264,1.384,3.504,1.766c1.16,0.357,2.859,0.841,5.052,1.44
				c4.116,1.117,7.981,2.146,11.596,3.087c3.612,0.942,8.015,2.075,13.204,3.4l0.207,0.053l0.207-0.051
				c4.536-1.115,9.69-2.359,15.46-3.732c5.773-1.373,11.286-2.688,16.541-3.943c1.815-0.438,3.56-0.945,5.188-1.508
				c1.685-0.583,2.819-1.05,3.469-1.43c0.766-0.459,1.249-1.09,1.443-1.881c0.069-0.278,0.127-0.54,0.174-0.785h2.663v12.192h-2.639
				c-0.164-0.959-0.501-1.777-1.005-2.438c-0.705-0.922-1.767-1.39-3.157-1.39c-0.653,0-1.912,0.162-3.85,0.493
				c-1.885,0.324-4.011,0.741-6.317,1.242c-2.555,0.558-5.559,1.221-9.01,1.988c-3.444,0.766-6.781,1.534-9.916,2.283l-0.021,1.649
				c4.606,1.223,10.239,2.632,16.743,4.191c6.648,1.593,10.48,2.367,11.714,2.367c1.507,0,2.614-0.258,3.382-0.788
				c0.709-0.488,1.176-1.364,1.418-2.665h2.659v9.388L160.735,328.223L160.735,328.223z"/>
		</g>
	</g>
	<g>
		<path d="M172.747,252.126c0.053-0.263,0.103-0.559,0.149-0.89c0.109-0.762-0.013-1.517-0.363-2.241
			c-0.663-1.261-1.48-2.426-2.44-3.49c-0.922-1.023-2.063-2.18-3.391-3.438c-2.606-2.47-5.896-5.629-9.779-9.391
			c-3.84-3.721-7.443-7.162-10.708-10.228l-0.151-0.142l-0.2-0.056c-3.351-0.945-7.604-2.137-12.756-3.577
			c-5.151-1.439-10.664-2.986-16.54-4.64c-2.538-0.716-4.305-1.168-5.401-1.38c-0.711-0.138-1.408-0.208-2.07-0.208
			c-0.415,0-0.827,0.027-1.223,0.082c-0.691,0.098-1.359,0.389-1.989,0.865c-0.292,0.222-0.542,0.424-0.754,0.611l-2.412-1.348
			l5.877-10.515l2.335,1.305c-0.194,0.676-0.287,1.425-0.278,2.237c0.014,1.307,0.639,2.343,1.808,2.996
			c0.716,0.4,1.981,0.906,3.867,1.545c1.815,0.618,3.81,1.254,5.927,1.892c2.188,0.663,4.611,1.395,7.272,2.193
			c2.63,0.79,5.754,1.687,9.285,2.666l0.815-1.435c-4.497-4.294-8.681-8.205-12.434-11.624c-3.809-3.467-6.319-5.521-7.673-6.278
			c-1.019-0.569-1.914-0.845-2.739-0.845c-0.237,0-0.469,0.023-0.689,0.071c-0.819,0.174-1.581,0.667-2.318,1.498l-2.336-1.306
			l4.57-8.178l2.376,1.328c-0.055,0.273-0.095,0.583-0.124,0.932c-0.06,0.756,0.055,1.485,0.34,2.168
			c0.565,1.228,1.3,2.312,2.197,3.251c0.853,0.893,2.101,2.145,3.708,3.723c3.047,2.983,5.92,5.766,8.615,8.352
			c2.694,2.585,5.984,5.721,9.869,9.41l0.154,0.147l0.206,0.057c4.504,1.239,9.609,2.667,15.316,4.284
			c5.71,1.618,11.163,3.16,16.362,4.627c1.798,0.503,3.569,0.912,5.265,1.215c1.681,0.3,2.865,0.445,3.621,0.445l0.105-0.001
			c0.891-0.026,1.62-0.342,2.176-0.938c0.196-0.209,0.376-0.41,0.536-0.602l2.325,1.3l-5.949,10.643l-2.304-1.288
			c0.325-0.917,0.429-1.795,0.311-2.618c-0.165-1.15-0.864-2.076-2.078-2.754c-0.565-0.316-1.744-0.79-3.601-1.448
			c-1.809-0.639-3.868-1.311-6.121-1.997c-2.502-0.759-5.447-1.646-8.834-2.66c-3.355-1.005-6.642-1.962-9.77-2.845l-0.822,1.429
			c3.422,3.312,7.651,7.291,12.569,11.826c5.024,4.632,7.991,7.177,9.071,7.781c1.175,0.657,2.167,0.977,3.03,0.977
			c0.105,0,0.208-0.005,0.308-0.014c0.857-0.081,1.692-0.617,2.537-1.634l2.321,1.297l-4.581,8.196L172.747,252.126z"/>
	</g>
	<g>
		<g>
			<path d="M224.75,188.916c0.18-0.2,0.373-0.429,0.581-0.69c0.482-0.601,0.762-1.313,0.829-2.114
				c0.069-1.423-0.04-2.841-0.325-4.245c-0.273-1.346-0.666-2.922-1.17-4.686c-1.013-3.545-2.237-7.939-3.639-13.061
				c-1.406-5.135-2.756-9.931-4.014-14.254l-0.058-0.2l-0.143-0.15c-2.404-2.519-5.457-5.709-9.161-9.571
				c-3.701-3.86-7.66-7.997-11.878-12.41c-1.821-1.909-3.111-3.197-3.945-3.937c-0.881-0.781-1.814-1.381-2.772-1.784
				c-0.483-0.2-1.011-0.301-1.574-0.301c-0.187,0-0.379,0.011-0.578,0.033c-0.365,0.043-0.684,0.09-0.96,0.143l-1.391-2.387
				l10.411-6.062l1.346,2.312c-0.51,0.482-0.972,1.08-1.378,1.783c-0.653,1.132-0.642,2.342,0.03,3.499
				c0.412,0.707,1.244,1.786,2.543,3.299c1.257,1.464,2.65,3.027,4.141,4.645c1.544,1.683,3.26,3.547,5.143,5.588
				c1.866,2.023,4.099,4.385,6.636,7.021l1.431-0.82c-1.691-6.004-3.302-11.499-4.788-16.334c-1.513-4.919-2.629-7.964-3.412-9.309
				c-0.744-1.279-1.604-2.09-2.555-2.411c-0.344-0.116-0.718-0.174-1.113-0.174c-0.511,0-1.054,0.094-1.645,0.285l-1.348-2.313
				l8.096-4.714l1.37,2.351c-0.186,0.208-0.378,0.453-0.581,0.74c-0.436,0.618-0.708,1.304-0.811,2.04
				c-0.14,1.344-0.059,2.652,0.237,3.917c0.276,1.184,0.7,2.849,1.297,5.089c1.106,4.12,2.162,7.977,3.167,11.574
				c1.004,3.596,2.241,7.971,3.706,13.122l0.058,0.204l0.148,0.153c3.247,3.359,6.915,7.187,11.005,11.482
				c4.09,4.297,8,8.401,11.73,12.31c1.29,1.346,2.606,2.599,3.914,3.725c1.352,1.163,2.327,1.909,2.98,2.279
				c0.508,0.28,1.022,0.42,1.535,0.42c0.274,0,0.549-0.04,0.818-0.119c0.276-0.081,0.532-0.163,0.767-0.245l1.34,2.301
				l-10.537,6.136l-1.329-2.281c0.747-0.625,1.284-1.327,1.601-2.095c0.441-1.074,0.311-2.227-0.388-3.428
				c-0.326-0.561-1.099-1.569-2.363-3.079c-1.223-1.461-2.653-3.088-4.251-4.834c-1.768-1.927-3.852-4.189-6.252-6.786
				c-2.392-2.589-4.735-5.085-6.963-7.421l-1.435,0.812c1.264,4.605,2.881,10.182,4.804,16.578
				c1.967,6.543,3.226,10.244,3.848,11.313c0.758,1.302,1.538,2.128,2.384,2.526c0.351,0.165,0.753,0.249,1.197,0.249
				c0.538,0,1.138-0.12,1.82-0.364l1.337,2.297l-8.113,4.725L224.75,188.916z"/>
		</g>
		<g>
			<path d="M252.272,172.935c0.21-0.193,0.454-0.418,0.729-0.675c0.669-0.619,1.061-1.214,1.192-1.818
				c0.168-0.831,0.093-1.758-0.218-2.771c-0.293-0.951-0.844-2.117-1.688-3.565l-30.925-53.109c-0.72-1.238-1.406-2.254-2.038-3.02
				c-0.705-0.855-1.554-1.447-2.523-1.76c-0.658-0.223-1.42-0.361-2.254-0.408c-0.197-0.011-0.382-0.016-0.555-0.016
				c-0.291,0-0.554,0.015-0.791,0.044l-1.398-2.4l10.084-5.873l1.355,2.326c-0.233,0.236-0.468,0.515-0.708,0.841
				c-0.438,0.592-0.769,1.226-0.984,1.882c-0.278,0.869-0.189,1.916,0.263,3.117c0.399,1.059,0.948,2.191,1.631,3.365l30.895,53.058
				c0.688,1.181,1.401,2.192,2.12,3.005c0.775,0.877,1.6,1.484,2.452,1.804c0.526,0.166,1.153,0.238,1.964,0.238h0.107
				c0.524-0.004,0.979-0.049,1.375-0.137l1.364,2.342l-10.085,5.872L252.272,172.935z"/>
		</g>
	</g>
	<g>
		<g>
			<path d="M303.849,164.246v-2.639c0.959-0.164,1.777-0.501,2.438-1.005c0.922-0.705,1.39-1.767,1.39-3.157
				c0-0.653-0.162-1.912-0.493-3.85c-0.324-1.885-0.741-4.011-1.242-6.317c-0.558-2.555-1.221-5.559-1.988-9.01
				c-0.766-3.444-1.534-6.781-2.283-9.917l-1.649-0.02c-1.223,4.606-2.632,10.239-4.191,16.743
				c-1.593,6.648-2.368,10.479-2.368,11.714c0,1.507,0.258,2.613,0.789,3.382c0.489,0.709,1.364,1.176,2.664,1.418v2.659h-9.389
				V161.5c0.256-0.081,0.538-0.183,0.849-0.304c0.72-0.277,1.319-0.752,1.78-1.411c0.777-1.192,1.396-2.474,1.856-3.832
				c0.443-1.304,0.896-2.864,1.347-4.638c0.883-3.475,2.036-7.888,3.427-13.118c1.381-5.193,2.627-10.017,3.705-14.337l0.05-0.201
				l-0.048-0.202c-0.81-3.386-1.844-7.68-3.1-12.88c-1.256-5.199-2.596-10.766-4.02-16.702c-0.611-2.56-1.079-4.323-1.43-5.388
				c-0.369-1.12-0.872-2.108-1.496-2.936c-0.423-0.555-1.002-0.996-1.726-1.314c-0.336-0.146-0.636-0.266-0.901-0.36v-2.763h12.046
				v2.676c-0.684,0.16-1.383,0.443-2.088,0.847c-1.134,0.65-1.734,1.702-1.734,3.04c0,0.82,0.176,2.171,0.537,4.13
				c0.349,1.892,0.766,3.943,1.241,6.097c0.488,2.232,1.032,4.706,1.633,7.418c0.598,2.7,1.338,5.865,2.202,9.406l1.649,0.011
				c1.567-6.071,2.94-11.63,4.081-16.524c1.169-5.016,1.737-8.208,1.737-9.761c0-1.481-0.335-2.615-0.996-3.37
				c-0.543-0.62-1.361-1.053-2.439-1.291v-2.678h9.368v2.722c-0.265,0.085-0.555,0.201-0.874,0.347
				c-0.688,0.316-1.268,0.771-1.727,1.354c-0.797,1.093-1.384,2.264-1.766,3.504c-0.357,1.16-0.841,2.859-1.441,5.052
				c-1.117,4.116-2.145,7.981-3.087,11.596c-0.942,3.612-2.075,8.015-3.4,13.204l-0.053,0.207l0.051,0.207
				c1.115,4.536,2.359,9.69,3.732,15.459c1.373,5.773,2.688,11.286,3.943,16.541c0.438,1.815,0.945,3.56,1.508,5.189
				c0.583,1.685,1.05,2.819,1.43,3.469c0.458,0.766,1.09,1.249,1.881,1.443c0.278,0.069,0.54,0.127,0.785,0.174v2.663
				L303.849,164.246L303.849,164.246z"/>
		</g>
		<g>
			<path d="M319.353,164.246v-2.708c0.279-0.061,0.603-0.133,0.969-0.216c0.891-0.198,1.528-0.516,1.946-0.972
				c0.562-0.631,0.966-1.471,1.206-2.505c0.226-0.964,0.336-2.249,0.336-3.929V92.46c0-1.436-0.081-2.659-0.241-3.634
				c-0.179-1.095-0.614-2.034-1.295-2.792c-0.458-0.525-1.047-1.028-1.743-1.488c-0.435-0.286-0.824-0.502-1.178-0.652v-2.778h11.67
				v2.691c-0.32,0.087-0.663,0.209-1.035,0.37c-0.682,0.295-1.286,0.676-1.798,1.133c-0.678,0.61-1.127,1.56-1.34,2.826
				c-0.188,1.117-0.284,2.371-0.284,3.728v61.397c0,1.362,0.107,2.595,0.32,3.663c0.229,1.149,0.636,2.088,1.212,2.793
				c0.386,0.424,0.922,0.821,1.67,1.248c0.454,0.26,0.87,0.45,1.255,0.573v2.71h-11.67V164.246z"/>
		</g>
		<g>
			<path d="M336.051,164.246v-2.708c0.278-0.061,0.602-0.133,0.969-0.216c0.891-0.198,1.528-0.516,1.946-0.972
				c0.562-0.631,0.966-1.471,1.206-2.505c0.226-0.964,0.336-2.249,0.336-3.929V92.46c0-1.436-0.081-2.659-0.241-3.634
				c-0.179-1.095-0.614-2.034-1.295-2.792c-0.458-0.525-1.047-1.028-1.743-1.488c-0.435-0.286-0.824-0.502-1.178-0.652v-2.778h11.67
				v2.691c-0.32,0.087-0.663,0.209-1.035,0.37c-0.682,0.295-1.286,0.676-1.798,1.133c-0.678,0.61-1.127,1.56-1.34,2.826
				c-0.189,1.117-0.284,2.371-0.284,3.728v61.397c0,1.362,0.107,2.595,0.32,3.663c0.229,1.149,0.636,2.088,1.212,2.793
				c0.386,0.424,0.922,0.821,1.67,1.248c0.454,0.26,0.87,0.45,1.255,0.573v2.71h-11.67V164.246z"/>
		</g>
	</g>
	<g>
		<path d="M318.313,459.888c-78.064,0-141.574-63.51-141.574-141.574s63.51-141.574,141.574-141.574
			c78.062,0,141.571,63.51,141.571,141.574C459.884,396.378,396.375,459.888,318.313,459.888z M318.313,188.739
			c-71.447,0-129.574,58.127-129.574,129.574s58.127,129.574,129.574,129.574c71.446,0,129.571-58.127,129.571-129.574
			C447.884,246.866,389.759,188.739,318.313,188.739z"/>
	</g>
	<g>
		<g>
			<path d="M381.413,90.88c-15.188,51.584-58.094,198.59-60.624,207.718c-1.915,6.909-10.072,35.992-10.837,38.632
				c-1.341,4.625-2.712,9.244-3.999,13.886c-3.19,11.505-2.602,21.712-2.602,21.712s5.76-8.446,8.95-19.951
				c1.287-4.643,2.49-9.31,3.722-13.967c0.932-3.523,9.195-31.626,11.115-38.552c2.529-9.128,41.438-157.238,54.977-209.28
				c0.064-0.245,0.188-0.723,0.188-0.723l-0.68-0.184C381.622,90.171,381.485,90.64,381.413,90.88z"/>
			<path d="M394.62,43.283c0,0-0.137,0.469-0.209,0.71c-1.498,5.101-3,10.201-4.498,15.304c-0.844,2.878-1.689,5.758-2.533,8.637
				c-0.447,1.526-0.895,3.053-1.342,4.579c-0.375,1.279-0.867,2.592-1.194,3.894c-0.635-0.063-1.274-0.086-1.931-0.033
				c-0.844,0.069-1.722,0.263-2.545,0.663c-0.41,0.197-0.805,0.446-1.162,0.746c-0.184,0.148-0.346,0.311-0.514,0.483
				c-0.086,0.094-0.172,0.2-0.25,0.292l-0.178,0.216l-0.021,0.032c-1.13,1.513-1.655,3.56-1.331,5.536
				c0.148,0.991,0.518,1.959,1.076,2.821c0.283,0.428,0.613,0.826,0.977,1.19c0.184,0.185,0.375,0.349,0.584,0.514l0.348,0.256
				l0.23,0.155l0.377,0.229l0.342,0.183c0.233,0.111,0.471,0.212,0.713,0.301c0.484,0.175,0.986,0.309,1.498,0.38
				c1.02,0.144,2.061,0.071,3.035-0.205c0.973-0.277,1.879-0.754,2.643-1.389c0.385-0.316,0.725-0.677,1.029-1.059
				c0.152-0.194,0.289-0.389,0.426-0.597l0.205-0.339l0.127-0.249c0.91-1.789,0.969-3.733,0.402-5.421
				c-0.559-1.687-1.758-3.062-3.207-3.865c-0.373-0.207-0.765-0.377-1.166-0.512c0.449-1.641,1.465-5.349,1.793-6.605
				c0.805-3.076,1.607-6.152,2.412-9.23c1.375-5.272,2.752-10.546,4.125-15.82c0.076-0.297,0.154-0.594,0.23-0.891
				c0.064-0.245,0.188-0.723,0.188-0.723L394.62,43.283z M387.001,78.411c1.305,0.921,2.096,2.405,2.213,3.873
				c0.066,0.733-0.043,1.46-0.266,2.113c-0.111,0.326-0.256,0.637-0.426,0.924c-0.086,0.145-0.18,0.282-0.277,0.416l-0.152,0.195
				l-0.08,0.093l-0.039,0.047l-0.02,0.023l-0.01,0.012l-0.006,0.007c0.012-0.019-0.029,0.046,0.023-0.037l-0.219,0.26l-0.148,0.134
				c-0.111,0.102-0.232,0.209-0.357,0.303c-0.246,0.191-0.512,0.349-0.781,0.486c-0.537,0.274-1.107,0.446-1.68,0.515
				c-0.57,0.068-1.141,0.038-1.676-0.084c-0.268-0.062-0.531-0.137-0.783-0.244c-0.125-0.053-0.248-0.113-0.369-0.176l-0.184-0.094
				l-0.09-0.052l-0.045-0.026l-0.023-0.012l-0.01-0.007l-0.006-0.003c0.022,0.016-0.061-0.039,0.051,0.034l-0.283-0.183
				l-0.121-0.088l-0.318-0.252c-0.214-0.174-0.408-0.37-0.586-0.584c-0.367-0.419-0.67-0.916-0.893-1.467
				c-0.43-1.109-0.43-2.442,0.123-3.654l-0.025,0.041l0.156-0.301c0.038-0.072,0.067-0.122,0.096-0.19
				c0.074-0.144,0.166-0.291,0.252-0.44c0.181-0.291,0.381-0.584,0.615-0.866c0.467-0.558,1.074-1.073,1.805-1.394
				c0.727-0.322,1.563-0.412,2.354-0.266C385.606,77.622,386.356,77.946,387.001,78.411z"/>
		</g>
		<path d="M379.784,95.801c0,0-0.137,0.469-0.209,0.71c-1.498,5.101-3,10.201-4.498,15.304c-0.844,2.878-1.689,5.758-2.533,8.637
			c-0.447,1.526-0.894,3.053-1.342,4.579c-0.375,1.279-0.867,2.592-1.195,3.894c-0.635-0.063-1.273-0.085-1.93-0.033
			c-0.844,0.069-1.723,0.263-2.545,0.663c-0.41,0.197-0.805,0.446-1.162,0.746c-0.184,0.148-0.346,0.311-0.514,0.483
			c-0.086,0.094-0.172,0.2-0.25,0.292l-0.178,0.216l-0.021,0.032c-1.129,1.513-1.654,3.56-1.33,5.536
			c0.148,0.991,0.518,1.959,1.076,2.821c0.283,0.428,0.613,0.826,0.977,1.19c0.184,0.185,0.375,0.349,0.584,0.514l0.348,0.256
			l0.23,0.155l0.377,0.229l0.342,0.183c0.232,0.111,0.471,0.212,0.713,0.301c0.484,0.175,0.986,0.309,1.498,0.38
			c1.02,0.144,2.061,0.071,3.035-0.205c0.973-0.277,1.879-0.754,2.643-1.389c0.385-0.316,0.725-0.677,1.029-1.059
			c0.152-0.194,0.289-0.389,0.426-0.597l0.205-0.339l0.127-0.249c0.91-1.789,0.969-3.733,0.402-5.421
			c-0.559-1.687-1.758-3.062-3.207-3.865c-0.373-0.207-0.766-0.377-1.166-0.512c0.449-1.641,1.465-5.349,1.793-6.605
			c0.805-3.076,1.607-6.152,2.412-9.229c1.375-5.273,2.752-10.546,4.125-15.82c0.076-0.297,0.154-0.594,0.23-0.891
			c0.065-0.245,0.188-0.723,0.188-0.723L379.784,95.801z M374.378,134.802c0.066,0.733-0.043,1.46-0.266,2.113
			c-0.111,0.326-0.256,0.637-0.426,0.924c-0.086,0.145-0.18,0.282-0.277,0.416l-0.152,0.195l-0.08,0.093l-0.039,0.047l-0.02,0.023
			l-0.01,0.012l-0.006,0.007c0.012-0.018-0.029,0.046,0.023-0.037l-0.219,0.26l-0.148,0.134c-0.111,0.102-0.232,0.209-0.357,0.303
			c-0.246,0.191-0.512,0.349-0.781,0.486c-0.537,0.275-1.107,0.446-1.68,0.515c-0.57,0.068-1.141,0.038-1.676-0.084
			c-0.268-0.062-0.531-0.137-0.783-0.244c-0.125-0.053-0.248-0.113-0.369-0.176l-0.184-0.094l-0.09-0.052l-0.045-0.026l-0.023-0.012
			l-0.01-0.007l-0.006-0.003c0.021,0.016-0.062-0.039,0.051,0.034l-0.283-0.183l-0.121-0.088l-0.318-0.252
			c-0.215-0.174-0.408-0.37-0.586-0.584c-0.367-0.419-0.67-0.916-0.893-1.467c-0.43-1.109-0.43-2.442,0.123-3.654l-0.025,0.041
			l0.156-0.301c0.037-0.072,0.066-0.122,0.096-0.19c0.074-0.144,0.166-0.291,0.252-0.441c0.18-0.291,0.381-0.584,0.615-0.866
			c0.467-0.558,1.074-1.073,1.805-1.394c0.727-0.322,1.562-0.412,2.354-0.266c0.791,0.154,1.541,0.479,2.186,0.943
			C373.47,131.85,374.261,133.334,374.378,134.802z"/>
	</g>
	<path d="M318.345,248.249c-2.357-1.102-5.728-2.194-8.695-3.048c0.599-0.069,1.194-0.166,1.779-0.315
		c4.014-0.959,7.575-3.74,9.455-7.332c0.953-1.788,1.525-3.757,1.673-5.739c0.145-1.974-0.147-3.98-0.767-5.771
		c-1.273-3.634-4.021-6.537-7.23-8.032c-3.206-1.536-6.851-1.723-10.022-0.751c-1.376,0.424-2.672,1.064-3.839,1.88
		c2.535-2.376,6.118-5.917,8.181-8.652c4.105-5.009,3.821-7.678,1.286-7.373c1.059,0.388-9.451-1.678-6.683-0.295
		c0.424,0.462,1.685,2.834,0.782,6.122c-0.618,3.184-3.4,7.282-4.492,8.793c-1.76,2.72-4.946-0.536-7.368-3.445
		c1.691,0.255,3.377,0.379,4.425,0.118c2.77-0.691,4.613-2.855,4.12-4.834c-0.493-1.977-3.138-3.021-5.907-2.331
		c-1.205,0.301-2.917,1.448-4.465,2.648c0.028-5.675-0.407-15.609-3.096-26.389c-4.157-16.662-12.126-29.023-12.126-29.023
		s-1.225,14.655,2.932,31.317c2.689,10.78,6.971,19.754,9.66,24.751c-1.931-0.332-3.98-0.541-5.186-0.24
		c-2.768,0.691-4.612,2.855-4.119,4.833s3.139,3.022,5.907,2.331c1.019-0.254,2.399-1.115,3.738-2.1
		c-0.749,3.711-1.998,8.07-4.796,6.525c-1.692-0.812-6.117-3.102-8.198-5.622c-2.38-2.478-2.419-5.183-2.269-5.82
		c1.77-2.586-6.459,4.119-5.704,3.274c-2.35,0.915-1.412,3.459,4.564,5.95c5.251,2.457,15.543,4.86,15.165,4.708
		c1.94,0.416,2.691-5.864,2.764-10.198c0.046-0.038,0.091-0.075,0.137-0.112c0.292,0.483,0.46,0.745,0.46,0.745
		s0.025-0.305,0.056-0.86c2.001,3.614,5.483,8.53,7.106,7.908c-0.332,0.354-0.657,0.718-0.971,1.1
		c-1.072,1.31-2.012,2.843-2.578,4.584c-0.287,0.867-0.478,1.782-0.543,2.713c-0.016,0.187-0.02,0.372-0.023,0.557
		c-1.471-2.708-3.715-4.749-6.29-5.975c-3.19-1.54-6.884-1.715-9.989-0.76c-3.295,0.982-5.805,3.143-7.971,5.716
		c-1.071,1.31-2.012,2.843-2.577,4.583c-0.287,0.867-0.478,1.782-0.544,2.713c-0.039,0.47-0.032,0.928-0.017,1.411
		c0.016,0.253,0.048,0.527,0.073,0.765l0.064,0.556l0.018,0.076c0.607,3.73,2.825,7.331,6.123,9.61
		c3.246,2.351,7.688,3.223,11.689,2.203c1.556-0.372,3.039-1.023,4.387-1.884c-2.392,2.294-5.298,5.25-7.074,7.604
		c-4.105,5.008-3.82,7.677-1.285,7.372c-1.059-0.387,9.45,1.678,6.683,0.295c-0.425-0.46-1.685-2.834-0.782-6.122
		c0.617-3.183,3.4-7.281,4.492-8.792c1.76-2.72,4.947,0.536,7.368,3.445c-1.691-0.255-3.378-0.379-4.425-0.118
		c-2.77,0.691-4.614,2.855-4.121,4.833c0.494,1.978,3.139,3.022,5.908,2.331c1.205-0.3,2.916-1.448,4.465-2.647
		c-0.027,5.675,0.408,15.608,3.098,26.389c4.156,16.662,14.715,39.409,14.715,39.409s-1.364-25.041-5.522-41.703
		c-2.689-10.78-6.972-19.754-9.661-24.751c1.931,0.332,3.98,0.542,5.186,0.241c2.768-0.691,4.613-2.855,4.12-4.834
		c-0.493-1.978-3.139-3.021-5.907-2.331c-1.019,0.254-2.399,1.114-3.738,2.099c0.749-3.712,1.998-8.069,4.796-6.525
		c1.692,0.811,6.115,3.102,8.196,5.622c2.381,2.477,2.42,5.183,2.271,5.82c-1.771,2.586,6.458-4.119,5.704-3.274
		C325.258,253.284,324.321,250.74,318.345,248.249z M301.575,221.426c1.088-0.76,2.332-1.283,3.623-1.514
		c2.588-0.495,5.257,0.265,7.133,1.81c1.899,1.545,2.951,3.771,3.089,5.912c0.181,2.152-0.523,4.131-1.654,5.645
		c-1.158,1.517-2.728,2.536-4.486,2.988c-1.759,0.447-3.632,0.372-5.469-0.359c-1.809-0.759-3.392-2.288-4.195-4.332l0.018,0.076
		l-0.179-0.53c-0.042-0.127-0.068-0.22-0.116-0.332c-0.087-0.251-0.156-0.531-0.234-0.802c-0.139-0.55-0.255-1.124-0.322-1.724
		c-0.129-1.194-0.045-2.505,0.411-3.739C299.643,223.293,300.495,222.196,301.575,221.426z M281.885,243.102
		c-1.758,0.447-3.632,0.372-5.468-0.359c-1.809-0.759-3.392-2.288-4.195-4.332l0.018,0.076l-0.178-0.53
		c-0.042-0.126-0.068-0.219-0.116-0.331c-0.088-0.252-0.157-0.531-0.234-0.802c-0.139-0.55-0.256-1.124-0.322-1.724
		c-0.129-1.194-0.045-2.505,0.411-3.739c0.449-1.232,1.302-2.329,2.381-3.099c1.073-0.758,2.367-1.291,3.59-1.505
		c2.655-0.511,5.275,0.26,7.167,1.801c0.948,0.761,1.685,1.723,2.206,2.734c0.26,0.509,0.462,1.035,0.607,1.567
		c0.072,0.267,0.13,0.535,0.178,0.803l0.058,0.403l0.018,0.204l0.01,0.1l0.006,0.05l0.004,0.025v0.012
		c-0.008-0.031,0.02,0.089-0.018-0.068C288.359,238.902,285.344,242.231,281.885,243.102z M300.278,253.852
		c-0.292-0.483-0.46-0.745-0.46-0.745s-0.025,0.305-0.056,0.86c-2.101-3.796-5.839-9.034-7.338-7.775
		c0.036-0.043-0.051,0.024-0.224,0.171c0.481-0.627,0.924-1.28,1.288-1.975c0.954-1.788,1.526-3.757,1.674-5.74
		c0.028-0.362,0.024-0.725,0.021-1.086c1.084,1.997,2.629,3.788,4.557,5.12c0.742,0.537,1.552,0.987,2.399,1.365
		c-1.178,1.552-1.668,6.238-1.725,9.692C300.369,253.777,300.324,253.814,300.278,253.852z"/>
	<path d="M583.208,379.091l-10.476-2.415c-3.544-1.811-9.732-4.598-17.114-6.3c-7.526-1.735-14.438-1.915-18.381-1.826
		c0.814-1.091,1.592-2.294,1.785-3.136c0.445-1.933-0.314-3.759-1.695-4.077s-2.861,0.991-3.307,2.924
		c-0.164,0.712-0.066,1.838,0.121,2.979c-2.064-1.635-4.369-3.784-2.529-5.03c1.037-0.792,3.852-2.81,6.07-3.304
		c2.285-0.693,3.973,0.137,4.322,0.431c1.043,1.912-0.516-5.301-0.23-4.567c0.174-1.743-1.697-1.966-5.125,0.95
		c-3.18,2.478-7.914,8.096-7.701,7.909c-0.871,1.071,2.782,3.516,5.443,4.928c0.01,0.041,0.018,0.081,0.027,0.122
		c-0.391,0.028-0.605,0.05-0.605,0.05s0.189,0.116,0.52,0.308c-2.941,0.1-7.21,0.735-7.133,1.998
		c-0.123-0.348-0.236-0.696-0.387-1.041c-0.475-1.077-1.127-2.144-2.027-3.043c-0.447-0.452-0.953-0.858-1.508-1.192
		c-0.114-0.071-0.238-0.124-0.355-0.186c2.114-0.061,4.144-0.796,5.703-2.016c1.963-1.5,3.228-3.699,3.627-5.971
		c0.199-1.138,0.199-2.303-0.018-3.423c-0.203-1.122-0.541-2.213-1.014-3.295c-0.473-1.077-1.127-2.143-2.025-3.043
		c-0.447-0.451-0.953-0.857-1.51-1.191c-0.277-0.174-0.564-0.314-0.869-0.456c-0.162-0.071-0.34-0.138-0.496-0.197l-0.365-0.136
		l-0.053-0.013c-2.5-0.8-5.432-0.562-7.885,0.763c-2.481,1.268-4.42,3.744-5.053,6.544c-0.26,1.081-0.324,2.206-0.217,3.312
		c-0.666-2.206-1.58-4.939-2.478-6.78c-1.807-4.124-3.549-4.79-4.16-3.123c0.574-0.534-4.022,5.324-2.293,4.047
		c0.42-0.118,2.289-0.15,4.039,1.445c1.779,1.389,3.437,4.405,4.029,5.558c1.129,1.948-1.894,2.896-4.459,3.478
		c0.691-0.967,1.301-1.973,1.469-2.703c0.445-1.934-0.312-3.76-1.693-4.078c-1.379-0.318-2.861,0.991-3.309,2.925
		c-0.193,0.841-0.023,2.264,0.232,3.603c-3.505-1.808-9.789-4.672-17.324-6.409c-5.094-1.175-20.539-4.088-36.291-6.991
		c-5.62-1.449-11.244-2.879-16.873-4.289l-18.977-4.65l-19.006-4.531l-19.029-4.419l-9.531-2.144
		c-3.176-0.717-6.355-1.416-9.545-2.076c-12.746-2.696-25.525-5.235-38.434-7.227c-0.539-0.085-1.072,0.237-1.238,0.774
		c-0.182,0.59,0.148,1.216,0.738,1.398c12.476,3.861,25.079,7.175,37.717,10.331c3.156,0.803,6.322,1.566,9.49,2.312l9.508,2.246
		l19.043,4.359l19.07,4.248l19.098,4.128c6.58,1.387,13.165,2.751,19.757,4.083c14.483,4.016,28.224,7.759,33.024,8.865
		c7.524,1.735,14.436,1.914,18.379,1.825c-0.814,1.091-1.591,2.294-1.785,3.135c-0.445,1.934,0.315,3.76,1.695,4.078
		c1.381,0.318,2.861-0.991,3.307-2.925c0.164-0.711,0.066-1.838-0.121-2.979c2.064,1.635,4.37,3.785,2.531,5.031
		c-1.039,0.792-3.854,2.81-6.07,3.304c-2.287,0.693-3.975-0.137-4.322-0.431c-1.043-1.912,0.514,5.301,0.228,4.566
		c-0.174,1.744,1.697,1.967,5.127-0.949c1.43-1.115,3.172-2.864,4.641-4.436c-0.023,0.065-0.055,0.123-0.078,0.19l-0.178,0.574
		l-0.1,0.373l-0.131,0.6l-0.084,0.531c-0.041,0.356-0.066,0.715-0.072,1.074c-0.01,0.717,0.041,1.438,0.18,2.142
		c0.273,1.407,0.842,2.743,1.646,3.898c0.807,1.155,1.846,2.132,3.025,2.849c0.592,0.359,1.221,0.646,1.859,0.871
		c0.324,0.111,0.643,0.204,0.978,0.289l0.537,0.117l0.387,0.056c2.766,0.384,5.35-0.423,7.312-1.932
		c1.965-1.502,3.229-3.701,3.629-5.972c0.171-0.987,0.184-1.992,0.045-2.972c0.673,2.319,1.736,5.657,2.779,7.797
		c1.809,4.125,3.551,4.79,4.162,3.124c-0.576,0.533,4.021-5.325,2.291-4.047c-0.42,0.117-2.287,0.149-4.039-1.447
		c-1.777-1.387-3.438-4.403-4.029-5.556c-1.129-1.948,1.893-2.896,4.459-3.478c-0.692,0.967-1.301,1.973-1.469,2.704
		c-0.445,1.934,0.312,3.758,1.693,4.076s2.863-0.989,3.309-2.923c0.193-0.842,0.022-2.266-0.232-3.605
		c3.504,1.808,9.787,4.673,17.324,6.41c7.375,1.701,14.159,1.906,18.14,1.829l10.481,2.417c0.076,0.018,0.15,0.025,0.226,0.025
		c0.455,0,0.866-0.312,0.974-0.775C584.082,379.752,583.746,379.215,583.208,379.091z M518.983,354.524
		c0.279-1.229,0.916-2.367,1.949-3.274c1.041-0.88,2.486-1.379,4.006-1.232l-0.053-0.013l0.385,0.058
		c0.092,0.014,0.158,0.026,0.242,0.032c0.183,0.025,0.379,0.07,0.572,0.108c0.383,0.088,0.775,0.196,1.168,0.345
		c0.779,0.296,1.566,0.762,2.188,1.434c0.619,0.667,1.031,1.541,1.168,2.453c0.127,0.914,0.058,1.85-0.207,2.723
		c-0.51,1.759-1.822,3.173-3.371,3.848c-1.555,0.689-3.268,0.638-4.637,0.048c-1.389-0.567-2.393-1.628-2.975-2.807
		C518.845,357.051,518.708,355.757,518.983,354.524z M512,366.784c-0.575-1.221-3.322-3.006-5.453-4.136
		c-0.009-0.041-0.017-0.081-0.026-0.122c0.393-0.028,0.607-0.05,0.607-0.05s-0.19-0.116-0.52-0.308
		c3.016-0.103,7.443-0.764,7.135-2.092c0.016,0.036,0.001-0.038-0.035-0.19c0.236,0.495,0.501,0.976,0.816,1.42
		c0.809,1.155,1.848,2.131,3.027,2.848c0.216,0.131,0.442,0.243,0.668,0.356c-1.58,0.041-3.176,0.433-4.609,1.206
		C513.042,366.015,512.505,366.377,512,366.784z M517.993,380.181C517.991,380.181,517.972,380.176,517.993,380.181L517.993,380.181
		z M525.991,376.282c-0.51,1.759-1.82,3.174-3.369,3.849c-0.772,0.347-1.6,0.5-2.391,0.503c-0.396,0.001-0.787-0.04-1.162-0.118
		c-0.19-0.039-0.373-0.088-0.555-0.144l-0.268-0.092l-0.131-0.052l-0.066-0.025l-0.033-0.013L518,380.183l-0.006-0.002
		c0.008,0.002,0.022,0.005,0.047,0.011l-0.365-0.139l-0.199-0.111c-0.152-0.083-0.315-0.177-0.463-0.274
		c-0.301-0.197-0.57-0.426-0.82-0.665c-0.498-0.481-0.896-1.036-1.186-1.631c-0.287-0.592-0.469-1.221-0.535-1.848
		c-0.031-0.314-0.051-0.627-0.029-0.941c0.012-0.154,0.029-0.31,0.053-0.466l0.033-0.233l0.021-0.116l0.012-0.06l0.004-0.029
		l0.004-0.015l0.002-0.007c-0.004,0.015,0-0.001,0.001-0.008l0.073-0.299l0.051-0.165l0.152-0.44
		c0.109-0.295,0.25-0.579,0.414-0.852c0.316-0.556,0.744-1.069,1.258-1.518c1.041-0.881,2.486-1.38,4.006-1.232l-0.053-0.013
		l0.385,0.057c0.092,0.015,0.158,0.027,0.242,0.033c0.184,0.025,0.379,0.07,0.572,0.107c0.383,0.088,0.775,0.196,1.168,0.344
		c0.781,0.297,1.566,0.765,2.188,1.436c0.621,0.667,1.031,1.54,1.168,2.453C526.327,374.475,526.257,375.409,525.991,376.282z"/>
	<circle cx="318.325" cy="318.313" r="16.667"/>
</g>
</svg>
