<?xml version="1.0" encoding="UTF-8" standalone="no"?>
<!-- Created with Inkscape (http://www.inkscape.org/) -->
<svg
   xmlns:dc="http://purl.org/dc/elements/1.1/"
   xmlns:cc="http://creativecommons.org/ns#"
   xmlns:rdf="http://www.w3.org/1999/02/22-rdf-syntax-ns#"
   xmlns:svg="http://www.w3.org/2000/svg"
   xmlns="http://www.w3.org/2000/svg"
   xmlns:sodipodi="http://sodipodi.sourceforge.net/DTD/sodipodi-0.dtd"
   xmlns:inkscape="http://www.inkscape.org/namespaces/inkscape"
   width="116.1633"
   height="374.53711"
   id="svg2"
   sodipodi:version="0.32"
   inkscape:version="0.46"
   sodipodi:docname="radacina_man_in_black_03.svg"
   inkscape:output_extension="org.inkscape.output.svg.inkscape"
   version="1.0"
   inkscape:export-filename="C:\joanna\Gfx\drawings_vector\admin\radacina_men_in_black.png"
   inkscape:export-xdpi="48.135864"
   inkscape:export-ydpi="48.135864">
  <defs
     id="defs4">
    <inkscape:perspective
       sodipodi:type="inkscape:persp3d"
       inkscape:vp_x="0 : 526.18109 : 1"
       inkscape:vp_y="0 : 1000 : 0"
       inkscape:vp_z="744.09448 : 526.18109 : 1"
       inkscape:persp3d-origin="372.04724 : 350.78739 : 1"
       id="perspective10" />
    <inkscape:perspective
       id="perspective2447"
       inkscape:persp3d-origin="372.04724 : 350.78739 : 1"
       inkscape:vp_z="744.09448 : 526.18109 : 1"
       inkscape:vp_y="0 : 1000 : 0"
       inkscape:vp_x="0 : 526.18109 : 1"
       sodipodi:type="inkscape:persp3d" />
  </defs>
  <sodipodi:namedview
     id="base"
     pagecolor="#ffffff"
     bordercolor="#666666"
     borderopacity="1.0"
     gridtolerance="10000"
     guidetolerance="10"
     objecttolerance="10"
     inkscape:pageopacity="0.0"
     inkscape:pageshadow="2"
     inkscape:zoom="0.7"
     inkscape:cx="200.13048"
     inkscape:cy="129.01505"
     inkscape:document-units="px"
     inkscape:current-layer="layer1"
     showgrid="false"
     inkscape:window-width="1280"
     inkscape:window-height="728"
     inkscape:window-x="3"
     inkscape:window-y="-20" />
  <metadata
     id="metadata7">
    <rdf:RDF>
      <cc:Work
         rdf:about="">
        <dc:format>image/svg+xml</dc:format>
        <dc:type
           rdf:resource="http://purl.org/dc/dcmitype/StillImage" />
      </cc:Work>
    </rdf:RDF>
  </metadata>
  <g
     inkscape:label="Layer 1"
     inkscape:groupmode="layer"
     id="layer1"
     transform="translate(-243.16121,-15.153603)">
    <g
       id="g2407">
      <path
         id="path2405"
         d="M 319.25803,389.44671 C 318.92797,389.32015 317.9783,388.30462 317.14769,387.18998 C 315.93493,385.56259 315.32021,384.97745 314.02705,384.21944 C 312.04695,383.05883 311.23393,382.22663 310.71523,380.82949 C 310.12555,379.2412 310.18557,376.2965 310.84709,374.35839 C 311.21379,373.28405 311.29284,372.77673 311.10336,372.71357 C 310.62437,372.55391 309.87196,371.62704 309.27767,370.4646 C 308.71547,369.36493 308.69812,369.15114 308.54757,361.46276 C 308.3687,352.32972 308.81085,343.73488 309.79865,337.14395 C 311.56422,325.36353 311.81513,323.13777 311.81468,319.26028 C 311.81413,314.35614 311.27495,298.96873 310.98617,295.61543 C 310.93502,295.02131 310.82001,293.56301 310.73065,292.37476 C 310.64127,291.18652 310.53071,289.79294 310.48493,289.27794 C 310.39786,288.29806 309.97005,282.93094 309.7655,280.25228 C 309.69997,279.3941 309.54281,277.82778 309.41626,276.77156 C 309.2897,275.71535 309.01636,273.28485 308.80883,271.37046 C 308.60133,269.45607 308.38418,267.51167 308.32631,267.04958 C 308.26843,266.58748 308.05251,264.58907 307.84647,262.60867 C 307.64047,260.62825 307.42348,258.62985 307.36434,258.16776 C 307.24952,257.27069 306.75538,252.4658 306.06831,245.56517 C 305.76727,242.54175 304.77726,236.30782 304.12406,233.32266 C 303.27985,229.46459 302.16967,225.68982 301.73744,225.20792 C 301.64219,225.1017 301.49269,228.0183 301.40523,231.68925 C 301.07022,245.75073 300.46366,264.14707 299.87922,277.97181 C 299.49924,286.96029 299.37557,308.59936 299.68574,311.82631 C 299.84419,313.47485 300.25183,318.38583 300.42235,320.70057 C 300.50015,321.75679 300.77813,323.64717 301.04005,324.90144 C 301.30197,326.15569 302.26166,330.74836 303.17267,335.10737 C 305.80265,347.69111 305.8737,348.87501 304.83607,362.82921 C 304.36036,369.22681 304.32714,369.44689 303.75961,369.95946 L 303.17402,370.48839 L 303.78057,371.38221 C 304.61008,372.60454 304.69479,373.07808 304.56236,375.75214 C 304.37433,379.54909 303.32836,381.35659 301.12824,381.68654 C 299.53734,381.9251 299.32507,382.18762 298.9932,384.32679 C 298.65055,386.53551 298.47812,387.00142 297.88609,387.31828 C 297.64895,387.4452 295.90629,387.89359 294.01352,388.31468 C 290.75507,389.03963 290.25318,389.08541 284.57092,389.17576 L 278.5697,389.27116 L 277.56492,388.40722 C 276.38793,387.39522 275.80913,385.79284 275.80913,383.54644 C 275.80913,382.28194 275.93974,381.90645 277.04888,379.98265 C 279.40593,375.89437 281.56637,371.39541 281.31691,371.09482 C 281.18784,370.93929 280.24687,370.76113 279.22585,370.69887 C 275.55612,370.47513 272.89267,369.04666 272.60495,367.14791 C 272.53512,366.68701 272.30751,363.01525 272.09916,358.98842 C 271.89083,354.9616 271.40046,345.72571 271.00944,338.46422 C 270.61842,331.20273 270.0815,321.10265 269.81628,316.01961 C 269.26844,305.52072 269.17483,304.18125 267.87055,288.17391 C 267.34881,281.77059 266.80932,275.88339 266.67173,275.09123 C 266.17242,272.21695 263.41419,260.51179 262.37271,256.84748 C 261.20811,252.75006 259.35988,243.78283 256.83129,229.96197 C 256.19322,226.47441 256.21948,226.53753 255.33406,226.36292 C 254.10326,226.12018 253.28977,225.74522 253.13847,225.35094 C 252.98479,224.95046 253.30164,222.00219 253.84251,218.79968 C 254.03205,217.67745 254.41018,215.30097 254.68283,213.5186 C 254.95547,211.73624 255.22435,209.99298 255.28036,209.64471 C 255.34822,209.2226 255.22359,208.86795 254.90648,208.58097 C 254.11617,207.86576 252.34758,205.0283 249.84149,200.4549 C 247.0283,195.32114 247.07116,195.50517 246.28811,185.1928 C 245.04636,168.83954 244.583,163.31066 244.35387,162.11365 C 243.89893,159.73689 243.39315,150.81024 243.24042,142.46216 C 243.07112,133.20703 242.95656,134.52754 245.30209,118.69917 C 245.56621,116.91681 246.00402,113.94619 246.27498,112.09781 C 248.13177,99.431881 248.89389,95.942251 250.501,92.748061 C 251.75394,90.257771 253.19719,89.283721 258.64561,87.251251 C 265.49404,84.696531 277.01418,79.877211 278.47115,78.957461 C 279.0356,78.601151 279.77042,77.717811 280.49446,76.525221 C 281.11978,75.495221 282.60026,73.587031 283.78442,72.284791 C 284.96859,70.982551 286.07483,69.577731 286.24272,69.162971 C 286.41061,68.748221 286.6142,66.870031 286.69514,64.989241 L 286.84231,61.569621 L 285.88533,60.088991 C 285.359,59.274641 284.82271,58.215981 284.69356,57.736401 C 284.52728,57.118831 284.15256,56.648621 283.4092,56.124631 C 282.12328,55.218241 281.16443,53.998071 280.98735,53.042781 C 280.80436,52.055471 280.40751,48.807961 280.23969,46.924461 C 279.84049,42.443711 279.66828,41.199621 279.3259,40.323101 C 278.59756,38.458491 278.91549,29.689441 279.81758,26.760321 C 280.17156,25.610991 280.56164,25.105781 282.83054,22.858151 C 284.26399,21.438101 286.23633,19.736761 287.2135,19.077381 C 288.70313,18.072191 289.1677,17.878501 290.0892,17.878501 C 290.78387,17.878501 291.62131,17.659051 292.36529,17.282041 C 295.97398,15.453381 298.84499,14.801831 300.95745,15.332101 C 301.71485,15.522241 302.92868,15.747111 303.65484,15.831841 C 306.16121,16.124261 309.0225,16.710711 309.73137,17.077271 C 310.66756,17.561401 316.71838,23.479391 317.40349,24.580991 C 317.98637,25.518201 317.98095,25.429511 318.1172,36.260471 L 318.17781,41.079661 L 318.88159,42.097531 L 319.58536,43.115391 L 319.29238,46.851741 C 318.83603,52.671921 318.65524,53.273211 316.49163,56.166361 C 315.80048,57.090541 315.16555,58.170761 315.08064,58.566841 C 314.99574,58.962931 315.0944,60.259191 315.29988,61.447431 C 315.60611,63.218211 315.87768,63.951111 316.80562,65.510841 C 318.07953,67.652101 320.08423,69.923601 321.95935,71.350511 C 323.47812,72.506231 331.35339,75.995911 334.32404,76.829541 C 335.47768,77.153261 337.39375,77.688551 338.58199,78.019051 C 351.63179,81.648801 351.95859,81.762601 353.36206,83.166081 C 354.38928,84.193291 354.53052,84.479771 355.00388,86.495931 C 356.28884,91.969141 357.10013,100.48282 358.38149,121.93983 C 359.33641,137.93065 359.38984,139.82795 359.28753,154.10643 C 359.18105,168.96717 359.134,169.75921 357.88994,177.63124 C 356.2342,188.1085 354.54224,193.33896 351.23056,198.21784 C 350.58171,199.17373 349.42871,200.92476 348.66831,202.10903 L 347.28574,204.26224 L 347.91671,210.51076 C 348.26372,213.94743 348.54684,217.97452 348.54586,219.45982 L 348.54404,222.16038 L 347.8357,222.16038 C 347.44612,222.16038 346.60294,222.27283 345.96199,222.41031 L 344.7966,222.66023 L 344.84063,227.27131 C 344.92165,235.75659 344.55645,243.47708 343.86173,247.96566 C 343.51436,250.21013 343.12682,253.55881 343.00053,255.40719 C 342.69929,259.81646 342.44097,262.78527 341.59074,271.61051 C 340.60969,281.79349 340.4152,287.28529 340.2179,310.37845 C 339.99235,336.77665 339.99285,337.87043 340.23745,353.48323 C 340.39842,363.75762 340.38006,366.94593 340.15746,367.36184 C 339.80578,368.01893 338.45962,368.61673 335.52237,369.42015 C 331.88791,370.41426 331.85908,370.83593 335.11443,375.38895 C 337.82958,379.18635 339.13348,381.6716 339.34422,383.4509 C 339.52327,384.96266 339.24177,385.42614 337.21707,386.95349 C 335.1351,388.52403 333.99165,388.96277 330.92706,389.36696 C 327.97878,389.75582 320.20277,389.80896 319.25803,389.44671 z"
         style="fill:#000000" />
      <path
         id="path2403"
         d="M 314.06414,106.57668 C 314.40889,104.99236 314.85173,102.72389 315.04824,101.53565 C 315.95558,96.048661 318.09718,80.730761 317.97418,80.607761 C 317.94357,80.577161 316.89664,82.073101 315.64767,83.932061 C 314.39871,85.791021 313.12475,87.510351 312.81662,87.752791 C 312.26736,88.184991 312.23692,88.181341 311.25631,87.566131 C 310.70625,87.221031 309.38121,86.146601 308.31181,85.178511 L 306.36744,83.418351 L 304.49589,85.474271 L 302.62438,87.530191 L 304.09635,89.654321 C 304.90597,90.822591 305.77485,92.299481 306.02724,92.936291 C 306.27965,93.573101 307.15436,95.498421 307.97106,97.214761 C 310.14901,101.79177 312.18059,106.60388 312.66369,108.32983 C 312.89661,109.16204 313.16597,109.75615 313.26225,109.6501 C 313.35854,109.54404 313.71938,108.16101 314.06414,106.57668 z"
         style="fill:#ffffff" />
      <path
         id="path2401"
         d="M 294.29292,104.15809 C 294.29292,102.73691 295.29673,97.755171 296.36629,93.868291 C 296.84074,92.144121 297.36631,90.033041 297.5342,89.177011 C 297.83808,87.627831 297.83621,87.615821 297.13296,86.593671 C 296.74437,86.028871 296.31389,85.243951 296.17637,84.849421 C 296.03881,84.454881 295.84795,84.132081 295.7522,84.132081 C 295.65646,84.132081 294.35569,85.487371 292.86159,87.143851 C 291.19829,88.987911 289.99817,90.127321 289.76619,90.082651 C 289.55782,90.042521 289.10034,89.435311 288.74955,88.733291 C 287.9807,87.194561 287.57154,86.717581 287.57154,87.360001 C 287.57154,88.489221 291.66855,100.70765 293.23454,104.24859 C 293.89009,105.73093 294.29292,105.69648 294.29292,104.15809 z"
         style="fill:#ffffff" />
      <path
         id="path2399"
         d="M 295.92415,82.571761 C 297.14333,81.119471 298.20788,79.676631 298.28976,79.365461 C 298.41912,78.873971 297.70375,78.064281 292.84043,73.197631 C 289.76136,70.116491 287.16362,67.644101 287.06765,67.703411 C 286.97168,67.762721 286.81975,68.245751 286.73004,68.776791 C 286.61761,69.442251 286.20035,70.169251 285.3874,71.116011 C 284.02963,72.697321 284.02776,72.144781 285.40862,77.410711 C 285.91063,79.325101 286.44676,81.539551 286.60004,82.331721 C 286.75331,83.123881 287.49151,85.051481 288.24043,86.615261 L 289.60216,89.458531 L 291.65479,87.335411 C 292.78374,86.167701 294.70496,84.024061 295.92415,82.571761 z"
         style="fill:#ffffff" />
      <path
         id="path2397"
         d="M 314.85423,84.132081 C 318.04857,79.530731 318.19219,79.180231 318.64156,74.890191 C 319.18438,69.707891 319.19672,69.823611 317.93637,68.287141 C 317.34148,67.561921 316.74808,66.968571 316.61768,66.968571 C 316.48729,66.968571 313.92241,69.299281 310.9179,72.147931 C 307.91342,74.996581 305.02599,77.713181 304.50144,78.184831 C 303.576,79.016911 303.55816,79.062041 303.90132,79.703791 C 304.29526,80.440561 309.17488,85.306421 310.85631,86.639181 C 311.45043,87.110091 312.08682,87.467791 312.27054,87.434071 C 312.45422,87.400341 313.6169,85.914451 314.85423,84.132081 z"
         style="fill:#ffffff" />
    </g>
  </g>
</svg>
