<svg viewBox="0 0 48 48" fill="none" xmlns="http://www.w3.org/2000/svg">
    <path fill-rule="evenodd" clip-rule="evenodd" d="M19.9984 6.2002L19.9101 6.2002C16.9942 6.20018 14.6835 6.20017 12.8283 6.36831C10.9296 6.5404 9.33189 6.8999 7.89843 7.72751C6.16541 8.72806 4.72629 10.1672 3.72574 11.9002C2.89813 13.3337 2.53863 14.9313 2.36654 16.83C2.1984 18.6853 2.19841 20.996 2.19843 23.9119L2.19843 24.0002L2.19843 24.0885C2.19841 27.0044 2.1984 29.3151 2.36654 31.1704C2.53863 33.0691 2.89813 34.6667 3.72574 36.1002C4.72629 37.8332 6.16541 39.2723 7.89843 40.2729C9.33189 41.1005 10.9296 41.46 12.8283 41.6321C14.6835 41.8002 16.9942 41.8002 19.9101 41.8002H19.9984H27.9984H28.0867C31.0027 41.8002 33.3133 41.8002 35.1686 41.6321C37.0673 41.46 38.665 41.1005 40.0984 40.2729C41.8314 39.2723 43.2706 37.8332 44.2711 36.1002C45.0987 34.6667 45.4582 33.0691 45.6303 31.1704C45.7985 29.3151 45.7984 27.0044 45.7984 24.0885V24.0002V23.9119C45.7984 20.996 45.7985 18.6853 45.6303 16.83C45.4582 14.9313 45.0987 13.3337 44.2711 11.9002C43.2706 10.1672 41.8314 8.72806 40.0984 7.72751C38.665 6.8999 37.0673 6.5404 35.1686 6.36831C33.3133 6.20017 31.0027 6.20018 28.0867 6.2002L27.9984 6.2002H19.9984ZM9.69843 10.8452C10.4927 10.3867 11.5042 10.1031 13.1532 9.95362C14.827 9.80192 16.9745 9.8002 19.9984 9.8002H27.9984C31.0223 9.8002 33.1699 9.80192 34.8437 9.95362C36.4926 10.1031 37.5042 10.3867 38.2984 10.8452C39.4842 11.5298 40.4688 12.5144 41.1534 13.7002C41.612 14.4944 41.8956 15.506 42.045 17.155C42.1967 18.8287 42.1984 20.9763 42.1984 24.0002C42.1984 27.0241 42.1967 29.1717 42.045 30.8454C41.8956 32.4944 41.612 33.506 41.1534 34.3002C40.4688 35.4859 39.4842 36.4706 38.2984 37.1552C37.5042 37.6137 36.4926 37.8973 34.8437 38.0468C33.1699 38.1985 31.0223 38.2002 27.9984 38.2002H19.9984C16.9745 38.2002 14.827 38.1985 13.1532 38.0468C11.5042 37.8973 10.4927 37.6137 9.69843 37.1552C8.51268 36.4706 7.52802 35.4859 6.84343 34.3002C6.38488 33.506 6.1013 32.4944 5.95185 30.8454C5.80015 29.1717 5.79843 27.0241 5.79843 24.0002C5.79843 20.9763 5.80015 18.8287 5.95185 17.155C6.1013 15.506 6.38488 14.4944 6.84343 13.7002C7.52802 12.5144 8.51268 11.5298 9.69843 10.8452ZM12.9984 14.5026C12.1713 13.9512 11.0537 14.1747 10.5023 15.0018C9.95086 15.829 10.1744 16.9465 11.0015 17.498L23.0015 25.498C23.6061 25.9011 24.3938 25.9011 24.9984 25.498L36.9984 17.498C37.8256 16.9465 38.0491 15.829 37.4977 15.0018C36.9462 14.1747 35.8287 13.9512 35.0015 14.5026L24 21.837L12.9984 14.5026Z" fill="#3490F3"/>
</svg>
