<svg viewBox="0 0 48 48" fill="none" xmlns="http://www.w3.org/2000/svg">
    <path d="M14.5749 38.9991V14.1932H6.32974V38.9991H14.5757H14.5749ZM10.454 10.807C13.3287 10.807 15.1183 8.90216 15.1183 6.5217C15.0645 4.08699 13.3287 2.23535 10.5087 2.23535C7.68678 2.23535 5.84375 4.08699 5.84375 6.52148C5.84375 8.90195 7.63276 10.8068 10.4 10.8068H10.4534L10.454 10.807ZM19.1386 38.9991H27.3831V25.1479C27.3831 24.4075 27.4369 23.6651 27.6547 23.1363C28.2505 21.6544 29.6071 20.1205 31.8853 20.1205C34.868 20.1205 36.0619 22.3951 36.0619 25.7301V38.9991H44.3062V24.7762C44.3062 17.1572 40.2391 13.6117 34.8146 13.6117C30.3673 13.6117 28.4141 16.0974 27.3289 17.7904H27.3837V14.1941H19.1391C19.2467 16.5212 19.1384 39 19.1384 39L19.1386 38.9991Z" fill="#007BB6"/>
</svg>
