<svg viewBox="0 0 48 48" fill="none" xmlns="http://www.w3.org/2000/svg">
    <path d="M47.4069 10.0428C45.9442 10.6723 44.4065 11.1106 42.8318 11.347C43.568 11.2208 44.6513 9.89557 45.0825 9.35918C45.7376 8.55008 46.2369 7.62642 46.555 6.63514C46.555 6.56151 46.6286 6.45634 46.555 6.40375C46.5179 6.3835 46.4763 6.37289 46.434 6.37289C46.3918 6.37289 46.3502 6.3835 46.3131 6.40375C44.6031 7.32974 42.7833 8.03648 40.8966 8.50726C40.8308 8.52735 40.7608 8.52915 40.6941 8.51247C40.6274 8.4958 40.5665 8.46127 40.5179 8.4126C40.3711 8.23772 40.213 8.0726 40.0446 7.91828C39.2751 7.2288 38.402 6.66449 37.4573 6.24599C36.1821 5.72282 34.8047 5.49625 33.4291 5.58338C32.0944 5.66768 30.7912 6.02568 29.6007 6.63514C28.4284 7.27768 27.3981 8.15059 26.5717 9.20142C25.7024 10.283 25.0748 11.5382 24.7311 12.8826C24.4477 14.1613 24.4156 15.483 24.6364 16.774C24.6364 16.9949 24.6364 17.0265 24.4471 16.9949C16.9481 15.8906 10.7954 13.2296 5.76799 7.51861C5.54712 7.26619 5.43143 7.26619 5.25263 7.51861C3.06498 10.8422 4.12725 16.1009 6.86181 18.6988C7.22993 19.0458 7.60856 19.3824 8.00822 19.6979C6.75445 19.6089 5.53129 19.2691 4.41123 18.6988C4.20088 18.562 4.08518 18.6356 4.07467 18.8881C4.04485 19.238 4.04485 19.5899 4.07467 19.9398C4.29412 21.6169 4.95506 23.2057 5.98991 24.5436C7.02475 25.8815 8.39637 26.9206 9.96448 27.5545C10.3468 27.7183 10.7451 27.8416 11.153 27.9226C9.99228 28.1511 8.80185 28.1867 7.62959 28.0278C7.37717 27.9752 7.28251 28.1119 7.37717 28.3538C8.92325 32.5609 12.2783 33.844 14.7394 34.5592C15.076 34.6118 15.4126 34.6118 15.7912 34.6959C15.7912 34.6959 15.7912 34.6959 15.7281 34.759C15.0024 36.0842 12.068 36.9782 10.7217 37.441C8.26451 38.3236 5.64463 38.661 3.04395 38.4296C2.63376 38.3665 2.53911 38.3771 2.43393 38.4296C2.32875 38.4822 2.43393 38.5979 2.54962 38.7031C3.0755 39.0502 3.60138 39.3552 4.14829 39.6497C5.77645 40.5377 7.49775 41.2432 9.28085 41.7532C18.5152 44.2984 28.9066 42.4263 35.8376 35.5373C41.2857 30.1313 43.1999 22.6744 43.1999 15.2069C43.1999 14.923 43.547 14.7547 43.7468 14.6074C45.1251 13.5335 46.3403 12.2652 47.3543 10.8422C47.5299 10.63 47.62 10.36 47.6067 10.0849C47.6067 9.92713 47.6067 9.95868 47.4069 10.0428Z" fill="#00ACED"/>
</svg>
