<svg viewBox="0 0 48 48" fill="none" xmlns="http://www.w3.org/2000/svg">
    <path d="M5.17389 43.858L8.02114 33.2807C5.7249 29.1603 4.99537 24.3521 5.9664 19.7385C6.93743 15.1248 9.5439 11.0152 13.3075 8.16372C17.0711 5.31224 21.7394 3.91017 26.4558 4.21479C31.1721 4.51942 35.6202 6.5103 38.9837 9.82211C42.3472 13.1339 44.4005 17.5445 44.7669 22.2445C45.1333 26.9446 43.7882 31.6187 40.9784 35.4094C38.1686 39.2 34.0826 41.8528 29.4701 42.881C24.8577 43.9091 20.0282 43.2437 15.8679 41.0069L5.17389 43.858ZM16.3835 37.0487L17.0449 37.4401C20.0583 39.2216 23.5779 39.9589 27.0552 39.5369C30.5325 39.1149 33.7722 37.5575 36.2695 35.1072C38.7667 32.6569 40.3812 29.4515 40.8613 25.9904C41.3415 22.5294 40.6603 19.0071 38.924 15.9725C37.1876 12.9379 34.4937 10.5614 31.2619 9.21346C28.0301 7.86549 24.4421 7.62172 21.0569 8.52014C17.6717 9.41855 14.6796 11.4087 12.5467 14.1804C10.4139 16.9522 9.26021 20.3498 9.26541 23.8438C9.26258 26.7409 10.0659 29.582 11.5858 32.0508L12.0006 32.7328L10.4088 38.6365L16.3835 37.0487Z" fill="#29A628"/>
    <path fill-rule="evenodd" clip-rule="evenodd" d="M32.4354 26.5598C32.0477 26.2479 31.5938 26.0284 31.1081 25.9179C30.6225 25.8075 30.118 25.8091 29.633 25.9225C28.9044 26.2244 28.4336 27.3649 27.9628 27.9351C27.8635 28.0718 27.7176 28.1677 27.5525 28.2047C27.3874 28.2418 27.2144 28.2175 27.066 28.1364C24.3985 27.0943 22.1625 25.1832 20.7213 22.7135C20.5984 22.5594 20.5402 22.3637 20.5591 22.1677C20.5779 21.9717 20.6722 21.7905 20.8222 21.6625C21.3473 21.144 21.7329 20.5018 21.9432 19.7953C21.9899 19.0159 21.8109 18.2397 21.4276 17.559C21.1312 16.6048 20.5672 15.7551 19.8022 15.1104C19.4076 14.9333 18.9701 14.874 18.5424 14.9395C18.1148 15.0049 17.7153 15.1924 17.3921 15.4793C16.831 15.9622 16.3856 16.5644 16.0888 17.2417C15.792 17.919 15.6513 18.654 15.677 19.3927C15.6787 19.8076 15.7314 20.2206 15.8339 20.6227C16.0942 21.5886 16.4945 22.5115 17.0222 23.362C17.4028 24.0136 17.8182 24.6444 18.2664 25.2516C19.7232 27.2463 21.5543 28.9399 23.6583 30.2384C24.714 30.8983 25.8424 31.4348 27.0212 31.8373C28.2456 32.391 29.5975 32.6035 30.9333 32.4523C31.6944 32.3374 32.4155 32.0377 33.0332 31.5795C33.6509 31.1213 34.1462 30.5187 34.4756 29.8247C34.6691 29.4055 34.7278 28.9368 34.6437 28.483C34.442 27.555 33.1977 27.0071 32.4354 26.5598Z" fill="#29A628"/>
</svg>
