<?xml version="1.0" encoding="utf-8"?>
<!-- Generator: Adobe Illustrator 17.0.0, SVG Export Plug-In . SVG Version: 6.00 Build 0)  -->
<!DOCTYPE svg PUBLIC "-//W3C//DTD SVG 1.1//EN" "http://www.w3.org/Graphics/SVG/1.1/DTD/svg11.dtd">
<svg version="1.1" id="Õ_xBA__x2264__x201E__x5F_1"
	 xmlns="http://www.w3.org/2000/svg" xmlns:xlink="http://www.w3.org/1999/xlink" x="0px" y="0px" width="281.558px"
	 height="43.316px" viewBox="0 0 281.558 43.316" enable-background="new 0 0 281.558 43.316" xml:space="preserve">
<polygon fill-rule="evenodd" clip-rule="evenodd" fill="#1A1A1A" points="168.4,22.987 172.646,22.987 172.646,26.491 
	174.149,24.893 178.44,24.893 178.475,34.7 181.451,34.763 181.451,17.884 186.013,17.884 186.013,19.612 186.925,20.458 
	186.925,30.615 191.215,30.615 191.215,14.737 195.458,14.737 199.701,19.172 199.701,29.996 203.077,29.996 203.077,34.43 
	203.352,34.43 203.352,18.552 208.232,18.552 208.232,25.514 208.232,36.336 213.39,36.336 213.39,25.514 213.39,18.217 
	218.272,18.217 218.272,34.763 218.865,34.763 218.865,30.282 221.923,30.282 221.923,18.838 226.165,14.404 230.455,14.404 
	230.455,30.282 234.698,30.282 234.698,20.125 235.61,19.279 235.61,18.217 236.756,18.217 237.116,17.884 239.58,17.884 
	239.58,18.217 240.174,18.217 240.174,34.43 242.911,34.43 242.911,28.708 243.231,28.708 243.231,24.559 247.476,24.559 
	248.98,26.133 248.98,23.32 253.27,23.32 253.27,16.31 256.6,12.83 259.93,12.83 259.93,29.996 265.406,29.996 265.406,33.142 
	266.958,33.142 266.958,15.977 270.29,12.496 273.346,12.496 273.346,19.791 276.084,19.791 276.084,9.635 280.327,9.635 
	280.327,29.041 281.558,29.041 281.558,43.316 0,43.316 0,37.688 2.127,37.688 2.127,28.473 8.341,28.473 8.341,30.797 
	16.769,30.797 16.769,26.149 20.99,26.149 20.99,30.797 22.836,30.797 22.836,34.202 23.805,34.202 23.805,24.987 26.151,24.987 
	26.151,34.202 33.657,34.202 33.657,37.688 36.473,37.688 36.473,27.811 46.324,27.811 46.36,0 54.609,0.036 54.592,37.688 
	56.177,37.688 56.177,30.135 56.905,30.135 56.905,17.977 60.059,17.977 60.059,12.708 64.622,5.696 71.657,5.696 71.657,17.375 
	75.136,17.375 75.136,22.624 77.757,22.624 77.757,14.47 83.387,14.47 83.387,22.624 85.021,22.624 85.021,30.135 85.733,30.135 
	85.733,37.688 86.444,37.688 86.444,24.947 92.544,24.947 92.544,34.202 97.736,34.202 97.736,32.54 103.964,26.629 103.964,7.234 
	114.367,7.234 114.367,28.291 120.822,28.291 120.822,21.961 129.784,27.872 129.784,24.367 136.384,24.367 136.384,27.872 
	138.26,27.872 138.26,30.215 139.792,30.215 139.792,29.041 141.298,29.041 141.298,9.969 145.587,9.969 145.587,20.125 
	148.325,20.125 148.325,12.83 151.336,12.83 154.712,16.31 154.712,33.476 156.219,33.476 156.219,30.282 161.693,30.282 
	161.693,13.116 165.023,13.116 168.4,16.645 168.4,22.987 "/>
</svg>
