<?xml version="1.0" encoding="utf-8"?>
<!-- Generator: Adobe Illustrator 17.0.0, SVG Export Plug-In . SVG Version: 6.00 Build 0)  -->
<!DOCTYPE svg PUBLIC "-//W3C//DTD SVG 1.1//EN" "http://www.w3.org/Graphics/SVG/1.1/DTD/svg11.dtd">
<svg version="1.1" id="Layer_1" xmlns="http://www.w3.org/2000/svg" xmlns:xlink="http://www.w3.org/1999/xlink" x="0px" y="0px"
	 width="530.549px" height="180.211px" viewBox="0 0 530.549 180.211" enable-background="new 0 0 530.549 180.211"
	 xml:space="preserve">
<g>
	<path fill="#E1051C" d="M251.754,13.557c-4.003,14.339-8.023,28.673-12.003,43.019c-5.066,18.261-10.161,36.515-15.089,54.814
		c-0.842,3.125-1.866,4.661-5.575,4.511c-3.376-0.136-4.785-0.921-5.72-4.348c-8.748-32.068-17.724-64.074-26.649-96.094
		c-0.161-0.579,0.09-1.397-1.316-1.81c0,1.872,0,3.592,0,5.311c0,30.653-0.117,61.307,0.125,91.959
		c0.036,4.627-1.739,5.166-5.477,4.877c-3.224-0.25-6.183,0.922-6.129-4.75c0.33-34.981,0.234-69.968,0.072-104.952
		c-0.018-3.883,1.158-4.918,4.794-4.573c5.105,0.485,11.555-2.001,15.007,0.995c3.162,2.744,3.226,9.104,4.563,13.896
		c6.386,22.894,12.74,45.797,19.103,68.697c0.347,1.248,0.349,2.65,1.87,3.755c5.098-18.276,10.146-36.338,15.174-54.405
		c2.719-9.768,5.481-19.526,8.055-29.332c0.704-2.684,1.828-3.826,4.769-3.628c4.312,0.29,8.662,0.192,12.987,0.03
		c2.468-0.092,3.496,0.472,3.489,3.248c-0.088,35.984-0.08,71.968-0.01,107.952c0.005,2.445-0.794,3.295-3.14,3.029
		c-1.151-0.131-2.355-0.178-3.491,0.007c-3.669,0.596-4.702-0.703-4.68-4.522c0.177-30.819,0.099-61.639,0.099-92.459
		c0-1.663,0-3.326,0-4.989C252.305,13.716,252.029,13.637,251.754,13.557z"/>
	<path fill="#E1051C" d="M0.085,58.474c0.001-17.31,0.098-34.62-0.076-51.928c-0.037-3.704,0.627-5.249,4.816-5.079
		c9.471,0.384,18.978-0.102,28.448,0.301c20.356,0.867,34.16,11.705,39.673,31.12c4.589,16.161,4.903,32.524,0.569,48.777
		c-5.419,20.321-19.313,32.121-40.166,33.704c-10.098,0.766-20.293,0.187-30.44,0.416c-3.771,0.085-2.794-2.457-2.799-4.383
		C0.065,93.76,0.084,76.117,0.085,58.474z M11.59,58.231c0,14.324,0.172,28.651-0.109,42.969c-0.08,4.093,1.241,5.077,5,4.787
		c3.974-0.306,7.99-0.032,11.987-0.075c17.746-0.191,29.653-9.227,34.098-26.408c3.827-14.793,3.493-29.733-0.556-44.403
		c-4.043-14.65-13.376-21.916-28.683-23.65c-5.984-0.678-11.976-0.316-17.951-0.632c-3.184-0.168-3.881,0.942-3.851,3.941
		C11.67,29.25,11.59,43.741,11.59,58.231z"/>
	<path fill="#E1051C" d="M281.427,58.33c-0.048-14.58,2.746-28.5,10.644-40.931c14.877-23.415,47.868-23.168,62.175,0.574
		c9.359,15.531,11.303,32.775,9.843,50.532c-1.025,12.456-4.055,24.258-11.928,34.342c-14.805,18.965-43.09,18.763-57.677-0.392
		C285.833,91.095,281.377,76.037,281.427,58.33z M353.107,56.955c-0.044-9.567-1.244-21.072-6.537-31.812
		c-4.655-9.446-11.933-15.142-22.685-15.237c-11.201-0.099-19.875,4.99-24.317,15.218c-9.616,22.142-9.775,44.645,0.094,66.771
		c4.516,10.125,12.861,15.498,24.227,15.315c11.461-0.185,18.926-6.251,23.448-16.417C351.823,80.708,353.089,70.032,353.107,56.955
		z"/>
	<path fill="#E1051C" d="M529.582,115.481c-10.609,0.678-10.606,0.677-13.267-8.84c-2.192-7.837-4.529-15.638-6.513-23.527
		c-0.653-2.597-1.687-3.471-4.353-3.434c-10.32,0.143-20.646,0.194-30.964-0.027c-2.953-0.063-3.981,0.985-4.68,3.641
		c-2.538,9.64-5.291,19.223-7.988,28.82c-0.803,2.856-10.1,5.47-11.991,3.288c-0.959-1.106-0.003-2.499,0.341-3.732
		c8.263-29.599,16.529-59.198,24.8-88.795c1.699-6.078,3.54-12.12,5.075-18.239c0.598-2.384,1.698-3.048,4.086-3.123
		c13.912-0.437,13.876-0.491,17.568,12.848c9.129,32.977,18.292,65.945,27.435,98.918
		C529.305,113.907,529.395,114.557,529.582,115.481z M490.261,12.976c-0.417,0.404-0.787,0.592-0.863,0.862
		c-5.071,18.034-10.077,36.087-15.214,54.103c-0.74,2.595,0.727,2.335,2.263,2.336c8.809,0.003,17.618-0.06,26.426,0.037
		c2.565,0.028,3.195-0.837,2.514-3.255C500.32,49.074,495.314,31.072,490.261,12.976z"/>
	<path fill="#E1051C" d="M93.089,58.731c0.001-17.655,0.063-35.31-0.057-52.965c-0.021-3.097,0.593-4.318,4.078-4.281
		c17.986,0.191,35.978,0.251,53.962-0.024c4.571-0.07,3.525,2.568,3.695,5.065c0.189,2.779,0.031,4.536-3.784,4.467
		c-14.153-0.256-28.314-0.006-42.469-0.175c-3.263-0.039-4.256,0.849-4.19,4.168c0.21,10.656,0.205,21.32,0.001,31.976
		c-0.06,3.146,0.882,3.899,3.917,3.838c9.656-0.195,19.328,0.176,28.975-0.186c4.254-0.16,3.641,2.246,3.501,4.677
		c-0.135,2.342,1.311,5.469-3.432,5.335c-9.653-0.272-19.32,0.024-28.977-0.144c-2.944-0.051-4.038,0.58-3.987,3.805
		c0.197,12.489,0.177,24.984,0.013,37.473c-0.041,3.109,0.939,3.909,3.962,3.88c14.989-0.145,29.985,0.152,44.967-0.198
		c4.58-0.107,4.5,1.99,4.566,5.276c0.07,3.473-0.294,5.213-4.662,5.143c-18.483-0.293-36.975-0.234-55.46-0.031
		c-3.706,0.041-4.761-0.835-4.713-4.634C93.209,93.709,93.088,76.219,93.089,58.731z"/>
	<path fill="#E1051C" d="M382.087,58.669c0-16.81,0.038-33.621-0.028-50.431c-0.015-3.927-0.677-7.065,5.57-6.963
		c5.738,0.094,5.859,2.375,5.841,6.72c-0.132,30.458,0.002,60.917-0.158,91.375c-0.021,3.892,0.97,5.029,4.924,4.958
		c13.81-0.248,27.629,0.005,41.441-0.171c3.315-0.042,4.208,0.958,4.149,4.213c-0.133,7.363,0.045,7.366-7.292,7.366
		c-16.644,0-33.29-0.152-49.93,0.111c-3.942,0.062-4.631-1.172-4.595-4.751C382.181,93.622,382.086,76.145,382.087,58.669z"/>
	<path fill="#2B282C" d="M363.766,175.142c5.024-12.495,9.564-23.727,14.048-34.982c0.836-2.098,1.624-4.143,4.472-3.428
		c2.793,0.702,1.377,3.038,1.394,4.538c0.135,11.822,0.1,23.646,0.034,35.47c-0.006,1.144,0.837,3.062-1.134,3.268
		c-2.473,0.257-1.769-1.894-1.775-3.218c-0.044-11.224-0.025-22.448-1.014-33.892c-4.039,9.893-7.996,19.822-12.173,29.657
		c-1.11,2.612-1.101,7.118-4.13,7.169c-2.606,0.044-2.718-4.428-3.768-6.928c-4.231-10.077-8.237-20.249-12.486-30.781
		c-1.249,1.305-0.817,2.622-0.821,3.748c-0.039,10.491-0.018,20.983-0.034,31.474c-0.002,1.268,0.357,3.026-1.736,2.784
		c-1.665-0.192-1.063-1.795-1.066-2.82c-0.038-12.49-0.048-24.979,0.016-37.469c0.006-1.089-0.88-2.866,1.41-3.025
		c1.906-0.132,3.322,0.044,4.194,2.313c3.636,9.455,7.51,18.818,11.305,28.212C361.418,169.498,362.366,171.751,363.766,175.142z"/>
	<path fill="#2B282C" d="M497.592,179.653c-3.075,1.159-3.935-0.462-4.887-2.119c-2.317-4.036-4.709-8.029-7.077-12.035
		c-2.297-3.886-7.54-5.691-11.821-4.299c-1.919,0.624-1.369,2.038-1.388,3.225c-0.071,4.33-0.025,8.662-0.032,12.993
		c-0.002,1.142,0.234,2.54-1.439,2.658c-1.849,0.13-1.514-1.387-1.516-2.466c-0.021-12.827,0.002-25.654-0.031-38.48
		c-0.004-1.559,0.284-2.54,2.151-2.443c5.136,0.267,10.306-0.506,15.411,0.861c4.917,1.317,7.818,4.385,8.384,9.357
		c0.567,4.975-0.723,9.616-5.565,11.783c-3.795,1.699-2.91,3.258-1.264,5.833C491.631,169.392,494.483,174.432,497.592,179.653z
		 M479.29,139.538c-6.899-0.026-6.899-0.026-6.9,6.674c0,0.996,0,1.993,0,2.989c0,10.301,1.15,11.227,11.491,9.246
		c6.453-1.236,9.555-6.159,7.881-12.51C490.499,141.141,487.433,139.568,479.29,139.538z"/>
	<path fill="#2B282C" d="M317.776,164.766c-8.812-0.001-8.64,0.072-12.157,8.285c-1.085,2.533-0.644,7.783-4.704,6.551
		c-2-0.607,1.1-5.069,2.073-7.642c4.101-10.852,8.489-21.596,12.863-32.343c0.449-1.103,0.405-2.944,2.198-2.944
		c1.783-0.001,1.777,1.826,2.216,2.934c4.885,12.335,9.697,24.698,14.46,37.081c0.399,1.037,2.022,2.514,0.04,3.333
		c-1.91,0.789-2.482-1.045-3.05-2.422c-0.632-1.53-1.206-3.084-1.816-4.623C326.64,164.767,326.639,164.768,317.776,164.766z
		 M318.047,141.75c-1.151,2.996-2.127,5.267-2.9,7.605c-1.38,4.172-5.811,9.561-3.768,12.046c2.352,2.86,8.641,0.725,13.219,0.786
		c0.216,0.003,0.437-0.382,0.823-0.744C323.086,155.207,320.72,148.888,318.047,141.75z"/>
	<path fill="#2B282C" d="M506.782,158.218c0-6.152,0.04-12.305-0.024-18.457c-0.02-1.896,0.178-3.15,2.609-3.103
		c6.316,0.123,12.636,0.027,18.955,0.057c0.895,0.004,2.151-0.333,2.224,1.173c0.084,1.75-1.244,1.639-2.413,1.64
		c-4.988,0.007-9.98,0.11-14.964-0.036c-2.49-0.073-3.391,0.582-3.49,3.296c-0.479,13.142-0.572,13.04,12.56,13.23
		c2.336,0.034,6.647-1.703,6.673,1.456c0.022,2.671-4.375,0.995-6.774,1.223c-3.932,0.374-9.098-1.15-11.537,0.836
		c-2.601,2.119-0.774,7.473-0.794,11.402c-0.04,7.696-1.116,6.512,6.491,6.616c3.99,0.055,7.981-0.007,11.972,0.026
		c0.913,0.008,2.167-0.294,2.248,1.179c0.081,1.46-1.102,1.397-2.082,1.399c-6.319,0.015-12.639-0.081-18.955,0.052
		c-2.806,0.059-2.733-1.574-2.718-3.534C506.812,170.523,506.781,164.371,506.782,158.218z"/>
	<path fill="#2B282C" d="M434.552,158.409c0-6.156,0.133-12.317-0.062-18.467c-0.085-2.669,0.786-3.381,3.358-3.3
		c5.651,0.178,11.314-0.008,16.968,0.105c1.225,0.024,3.509-0.923,3.383,1.419c-0.116,2.159-2.329,1.303-3.654,1.332
		c-4.49,0.101-8.987,0.141-13.475-0.003c-2.377-0.077-3.439,0.314-3.537,3.153c-0.458,13.283-0.565,13.185,12.84,13.374
		c2.157,0.03,6.208-1.64,6.21,1.435c0.001,2.659-4.075,0.967-6.303,1.247c-4.072,0.513-9.688-1.754-11.887,0.88
		c-2.075,2.487-0.3,7.94-0.862,11.999c-0.727,5.257,1.358,6.566,6.226,6.066c4.116-0.423,8.31-0.104,12.469-0.064
		c0.94,0.009,2.197-0.081,2.029,1.422c-0.113,1.01-1.064,1.144-1.914,1.146c-6.489,0.012-12.979-0.062-19.466,0.044
		c-2.679,0.044-2.324-1.674-2.323-3.319C434.553,170.722,434.552,164.566,434.552,158.409z"/>
	<path fill="#2B282C" d="M397.552,158.501c0-6.149,0.107-12.3-0.052-18.445c-0.064-2.487,0.448-3.646,3.229-3.403
		c4.612,0.402,9.287-0.487,13.878,0.79c5.722,1.591,8.649,4.876,9.015,10.404c0.422,6.377-2.283,10.87-7.823,13.002
		c-3.493,1.344-7.17,1.558-10.802,1.254c-3.393-0.284-4.769,0.64-4.449,4.258c0.321,3.628,0.107,7.306,0.049,10.962
		c-0.019,1.192,0.543,2.935-1.698,2.782c-1.837-0.126-1.321-1.618-1.328-2.657C397.531,171.131,397.552,164.816,397.552,158.501z
		 M407.104,139.538c-6.484-0.016-6.484-0.016-6.484,6.504c0,1.49,0,2.98,0,4.47c0,10.351,0.647,10.855,11.181,8.721
		c6.049-1.226,8.539-4.019,8.615-9.669C420.512,142.493,416.619,139.561,407.104,139.538z"/>
	<path fill="#2B282C" d="M280.781,159.733c0-5.33-0.247-10.676,0.085-15.985c0.23-3.677-1.138-4.603-4.503-4.265
		c-2.638,0.265-5.324,0.047-7.989,0.034c-0.896-0.004-1.627-0.268-1.753-1.306c-0.187-1.536,0.907-1.503,1.908-1.503
		c9.161-0.009,18.322-0.01,27.484,0.002c1.003,0.001,2.125-0.005,1.903,1.522c-0.143,0.986-0.825,1.315-1.78,1.307
		c-2.665-0.022-5.352,0.212-7.99-0.055c-3.437-0.347-4.553,0.769-4.475,4.346c0.238,10.988,0.114,21.985,0.043,32.978
		c-0.007,1.13,0.838,3.074-1.195,3.211c-2.454,0.165-1.691-1.983-1.707-3.296C280.741,171.06,280.781,165.396,280.781,159.733z"/>
</g>
</svg>
