<?xml version="1.0" encoding="utf-8"?>
<!-- Generator: Adobe Illustrator 17.0.0, SVG Export Plug-In . SVG Version: 6.00 Build 0)  -->
<!DOCTYPE svg PUBLIC "-//W3C//DTD SVG 1.1//EN" "http://www.w3.org/Graphics/SVG/1.1/DTD/svg11.dtd">
<svg version="1.1" id="Layer_1" xmlns="http://www.w3.org/2000/svg" xmlns:xlink="http://www.w3.org/1999/xlink" x="0px" y="0px"
	 width="364.08px" height="199.92px" viewBox="0 0 364.08 199.92" enable-background="new 0 0 364.08 199.92" xml:space="preserve">
<g id="_x39_FgWuo_1_">
	<g>
		<path fill="#F48220" d="M336,200.16c-102.4,0-204.8,0-307.2,0c-0.108-0.405-0.451-0.239-0.694-0.264
			c-7.078-0.735-13.222-3.507-18.378-8.427c-0.227-0.217-0.649-0.361-0.524-0.858c0.288,0,0.567,0,0.847,0
			c13.44,0,26.88,0.001,40.32,0.001c2.322,0,2.341-0.007,3.118,2.204c0.21,0.596,0.451,0.869,1.157,0.899
			c1.021,0.044,1.477-0.25,1.668-1.305c0.328-1.811,0.403-1.798,2.259-1.798c16.04,0,32.08,0,48.12,0
			c2.235,0,2.182-0.002,2.245-2.178c0.028-0.986-0.239-1.291-1.252-1.279c-4.599,0.053-9.2,0.023-13.8,0.023
			c-11.76,0-23.52-0.009-35.28,0.017c-0.945,0.002-1.303-0.08-1.129-1.223c0.618-4.047,0.744-8.127,0.087-12.184
			c-0.837-5.171-2.682-9.867-6.812-13.368c-0.509-0.431-0.323-0.806-0.165-1.266c0.743-2.155,1.643-4.243,2.656-6.283
			c4.786-9.645,11.313-18.073,18.403-26.082c12.017-13.574,25.429-25.668,39.561-36.989c0.785-0.629,1.056-0.542,1.423,0.403
			c0.937,2.409,1.629,4.942,3.277,7.025c0.951,1.201,1.959,2.325,3.431,2.91c2.082,0.827,4.21,0.17,6.186-1.977
			c2.311-2.51,3.763-5.538,5.05-8.646c3.541-8.556,5.753-17.502,7.642-26.533c0.291-1.392,0.859-2.292,2.066-3.086
			c8.976-5.901,17.498-12.368,24.652-20.467c0.462-0.523,0.981-0.578,1.599-0.578c55.84,0.007,111.679-0.011,167.519,0.019
			c14.315,0.008,26.402,9.772,29.603,23.701c0.19,0.826,0.09,1.744,0.664,2.471c0,36.32,0,72.64,0,108.96
			c-0.434,0.225-0.37,0.681-0.433,1.042c-0.705,4.025-2.245,7.709-4.423,11.153c-0.458,0.724-0.948,1.025-1.82,1.006
			c-2.636-0.06-5.273-0.025-7.91-0.024c-2.201,0-2.147,0.004-2.214,2.199c-0.031,1.004,0.27,1.288,1.263,1.257
			c2.287-0.072,4.578-0.023,7.044-0.023c-0.235,0.307-0.314,0.441-0.422,0.546c-4.399,4.294-9.594,7.073-15.633,8.292
			C338.517,199.702,337.188,199.567,336,200.16z M280.732,154.768c-1.925,0.862-3.62,1.276-5.385,1.417
			c-4.527,0.361-7.305-2.782-6.277-7.117c1.135-4.785,7.309-8.783,12.141-7.861c3.019,0.576,4.61,2.518,4.643,5.624
			c0.014,1.299-0.306,2.534-0.659,3.76c-2.181,7.592-4.361,15.184-6.586,22.763c-0.296,1.009-0.283,1.378,0.959,1.366
			c6.478-0.064,12.956-0.058,19.434-0.013c0.965,0.007,1.273-0.353,1.515-1.212c1.46-5.183,3.048-10.331,4.466-15.526
			c1.468-5.379,3.484-10.626,4.009-16.242c0.776-8.306-2.849-15.658-11.191-18.877c-5.535-2.136-11.294-2.403-17.117-1.75
			c-6.947,0.779-13.15,3.489-18.826,7.487c-7.975,5.618-13.531,12.872-15.529,22.625c-1.96,9.57,2.324,18.366,11.038,22.24
			c5.027,2.235,10.318,2.572,15.735,2.148c1.442-0.113,1.899-0.735,2.239-2.009c1.081-4.046,2.304-8.054,3.466-12.079
			C279.423,159.376,280.027,157.238,280.732,154.768z M148.976,151.653c0-0.005,0-0.009,0-0.014c5.92,0,11.84,0.002,17.76-0.004
			c0.495,0,1.015,0.139,1.286-0.553c1.701-4.342,2.767-8.822,2.001-13.473c-1.301-7.893-6.05-13.028-13.555-15.407
			c-7.83-2.483-15.693-1.789-23.26,1.139c-10.224,3.956-18.387,10.423-23.171,20.557c-2.166,4.589-3.363,9.467-2.633,14.549
			c1.16,8.074,5.967,13.391,13.564,15.832c10.808,3.472,20.97,1.099,30.613-4.34c0.589-0.332,0.398-0.653,0.145-1.055
			c-2.555-4.056-5.116-8.109-7.647-12.181c-0.373-0.601-0.664-0.624-1.212-0.218c-1.159,0.858-2.419,1.55-3.797,2.01
			c-4.745,1.583-8.411-0.725-8.952-5.615c-0.097-0.879,0.063-1.262,1.1-1.253C137.136,151.68,143.057,151.653,148.976,151.653z
			 M323.722,174.675c0-0.005,0-0.009,0-0.014c3.278,0,6.557-0.031,9.834,0.021c0.842,0.013,1.161-0.267,1.389-1.06
			c6.725-23.337,13.472-46.668,20.239-69.993c0.289-0.997,0.139-1.271-0.956-1.261c-6.476,0.058-12.953,0.06-19.429,0.029
			c-0.913-0.004-1.295,0.245-1.556,1.161c-3.019,10.585-6.094,21.153-9.15,31.727c-3.677,12.72-7.338,25.444-11.047,38.154
			c-0.308,1.056-0.099,1.277,0.96,1.257C317.245,174.637,320.484,174.675,323.722,174.675z M224.532,136.031
			c-0.642-4.474-1.255-8.574-1.801-12.682c-0.134-1.011-0.393-1.471-1.574-1.457c-5.957,0.074-11.916,0.036-17.874,0.038
			c-1.739,0-1.72-0.003-1.373,1.727c2.939,14.628,5.871,29.257,8.805,43.885c0.601,2.997,1.202,5.995,1.81,9.023
			c0.588-0.16,0.749-0.609,1.003-0.933c13.776-17.537,27.543-35.08,41.305-52.627c0.212-0.27,0.62-0.546,0.475-0.902
			c-0.162-0.399-0.636-0.185-0.964-0.185c-6.038-0.009-12.076,0.01-18.114-0.012c-0.677-0.003-1.089,0.216-1.485,0.753
			c-1.425,1.928-2.901,3.818-4.358,5.722C228.501,130.845,226.615,133.309,224.532,136.031z M184.328,149.747
			c0-0.003,0-0.007,0-0.01c4.075,0,8.15-0.03,12.224,0.025c0.857,0.012,1.18-0.295,1.393-1.057
			c1.123-4.017,2.254-8.032,3.455-12.026c0.265-0.882,0.135-1.08-0.777-1.077c-8.189,0.031-16.379,0.033-24.568,0.01
			c-0.761-0.002-1.125,0.204-1.336,0.964c-1.114,4.02-2.251,8.035-3.451,12.03c-0.277,0.922-0.155,1.171,0.835,1.16
			C176.178,149.721,180.253,149.747,184.328,149.747z M292.506,191.348c0.086,1.537-0.37,2.039-1.76,2.1
			c-0.612,0.027-1.177-0.153-1.763-0.243c-0.275-0.042-0.707-0.551-0.845,0.113c-0.083,0.402-0.204,0.892,0.243,1.21
			c1.762,1.253,5.21-0.072,5.624-2.215c0.473-2.45,0.104-4.939,0.206-7.408c0.021-0.503-0.265-0.646-0.676-0.577
			c-0.763,0.127-1.474-0.095-2.211-0.213c-1.433-0.228-2.878,0.597-3.542,1.906c-0.745,1.47-0.568,3.831,0.367,4.887
			C289.152,192.041,290.456,192.185,292.506,191.348z M341.067,188.93c0-0.44,0.001-0.879,0-1.319
			c-0.009-2.734-0.972-3.656-3.708-3.511c-0.555,0.029-1.106,0.15-1.657,0.233c-0.776,0.117-0.636,0.722-0.592,1.213
			c0.068,0.756,0.553,0.328,0.879,0.242c0.857-0.228,1.722-0.383,2.601-0.205c0.449,0.091,0.882,0.381,0.872,0.861
			c-0.012,0.558-0.587,0.414-0.939,0.48c-0.389,0.073-0.8,0.017-1.193,0.074c-1.542,0.223-2.56,0.995-2.771,2.066
			c-0.211,1.073,0.073,1.952,0.95,2.65c0.977,0.779,2.005,0.582,3.059,0.25c0.409-0.129,0.666-0.613,1.274-0.039
			c0.563,0.531,1.21,0.023,1.222-0.837C341.073,190.368,341.065,189.649,341.067,188.93z M142.647,188.428c0-0.001,0-0.002,0-0.004
			c0.719,0,1.439-0.002,2.158,0.001c0.354,0.002,0.561-0.077,0.632-0.512c0.31-1.891-1.148-3.749-3.055-3.832
			c-1.945-0.085-3.508,1.037-3.918,2.811c-0.525,2.273,0.224,4.148,2.036,4.97c1.225,0.556,2.48,0.397,3.75,0.082
			c0.91-0.226,1.25-0.851,0.938-1.577c-0.32-0.744-0.839,0.004-1.22,0.146c-1.68,0.626-3.174,0.267-3.782-0.973
			c-0.351-0.716-0.409-1.221,0.662-1.123C141.444,188.472,142.047,188.428,142.647,188.428z M221.76,188.176
			c-0.002-2.47-1.383-4.071-3.528-4.092c-2.145-0.021-3.674,1.711-3.651,4.136c0.023,2.373,1.516,4.022,3.638,4.017
			C220.36,192.232,221.762,190.624,221.76,188.176z M265.116,184.081c-2.17,0.017-3.529,1.639-3.517,4.199
			c0.011,2.415,1.468,3.997,3.643,3.956c2.075-0.039,3.567-1.786,3.523-4.126C268.72,185.746,267.198,184.065,265.116,184.081z
			 M189.069,188.149c0,1.04,0.023,2.08-0.009,3.119c-0.018,0.578,0.207,0.749,0.768,0.756c0.584,0.007,0.761-0.209,0.748-0.767
			c-0.03-1.279-0.017-2.559-0.015-3.838c0.001-1.158,0.784-1.896,2.023-1.881c1.101,0.014,1.391,0.704,1.381,1.671
			c-0.013,1.319,0.037,2.639,0.015,3.958c-0.01,0.596,0.146,0.863,0.801,0.859c0.625-0.004,0.837-0.204,0.818-0.831
			c-0.039-1.318,0.001-2.639-0.015-3.958c-0.033-2.691-1.779-3.816-4.246-2.737c-0.344,0.151-0.509,0.302-0.949-0.072
			c-0.642-0.546-1.311-0.053-1.321,0.843C189.059,186.229,189.067,187.189,189.069,188.149z M116.056,188.136
			c0.004,0,0.008,0,0.012,0c0,0.48-0.023,0.961,0.004,1.439c0.119,2.111,1.438,3,3.517,2.496c0.695-0.168,0.669-0.57,0.624-1.051
			c-0.068-0.722-0.526-0.36-0.883-0.298c-1.286,0.222-1.678-0.096-1.719-1.41c-0.02-0.639-0.011-1.279-0.011-1.919
			c-0.001-1.683,0-1.731,1.682-1.729c0.841,0.001,1.13-0.347,0.892-1.063c-0.182-0.548-0.771-0.302-1.155-0.276
			c-0.973,0.065-1.648-0.073-1.426-1.299c0.097-0.535-0.026-0.876-0.73-0.898c-0.782-0.025-0.814,0.363-0.82,0.95
			c-0.005,0.5,0.23,1.083-0.629,1.321c-0.37,0.102-0.426,0.975,0.054,1.16c0.718,0.277,0.563,0.77,0.584,1.257
			C116.071,187.255,116.056,187.696,116.056,188.136z M170.174,186.349c0.049-0.782,0.332-1.439-0.54-1.844
			c-1.553-0.721-3.59-0.431-4.671,0.726c-1.207,1.291-1.408,3.807-0.428,5.363c0.848,1.345,2.578,1.91,4.332,1.415
			c1.495-0.422,1.56-0.532,1.205-2.074c-1.302,0.63-2.618,1.627-3.974,0.176c-0.723-0.773-0.737-3.009-0.118-3.854
			C166.704,185.269,167.893,185.275,170.174,186.349z M240.916,186.72c0,1.516,0.015,3.033-0.008,4.549
			c-0.008,0.558,0.184,0.77,0.759,0.768c0.554-0.002,0.778-0.159,0.773-0.745c-0.022-3.033-0.023-6.065-0.003-9.098
			c0.004-0.609-0.178-0.843-0.817-0.836c-0.622,0.007-0.713,0.301-0.708,0.813C240.93,183.687,240.919,185.204,240.916,186.72z
			 M315.359,188.22c0-1.075-0.02-2.151,0.008-3.225c0.014-0.522-0.183-0.695-0.694-0.686c-0.492,0.009-0.834,0.036-0.825,0.684
			c0.029,2.11,0.031,4.221,0.001,6.33c-0.009,0.648,0.328,0.678,0.822,0.687c0.509,0.009,0.711-0.161,0.696-0.685
			C315.34,190.291,315.36,189.256,315.359,188.22z M314.553,183.337c0.581,0.099,0.864-0.084,0.86-0.737
			c-0.004-0.615-0.114-0.957-0.839-0.911c-0.545,0.035-0.885,0.104-0.881,0.773C313.697,183.094,313.842,183.464,314.553,183.337z"
			/>
		<path fill="#F48220" d="M0.24,67.2c0.607-1.063,0.451-2.281,0.662-3.422C3.32,50.667,13.868,40.714,27.109,39.064
			c1.477-0.184,2.949-0.205,4.426-0.205c19.395-0.005,38.79-0.007,58.185,0.013c0.544,0.001,1.386-0.372,1.594,0.334
			c0.249,0.844,0.273,1.762-0.526,2.542c-3.236,3.159-6.231,6.541-9.109,10.028c-11.72,14.2-20.673,30.033-27.652,47.016
			c-6.287,15.3-10.79,31.123-13.658,47.411c-0.408,2.318-0.71,4.656-1.014,6.991c-0.08,0.616-0.228,0.927-0.934,0.901
			c-10.781-0.397-18.737,4.848-25.325,12.763c-2.127,2.556-3.942,5.327-5.318,8.369c-0.131,0.291-0.257,0.586-0.355,0.889
			c-0.251,0.777-0.521,1.616,0.39,2.124c0.893,0.498,1.47-0.099,2.019-0.749c1.624-1.92,3.968-2.314,6.228-2.72
			c5.491-0.987,11.044-1.173,16.605-0.864c1.181,0.066,2.07-0.157,2.856-1.045c0.578-0.654,1.276-1.202,2.022-1.89
			c0.256,1.027,0.102,1.952-0.047,2.856c-0.153,0.932,0.132,1.401,1.047,1.782c5.254,2.185,9.071,6.003,11.991,10.798
			c0.118,0.194,0.201,0.408,0.375,0.768c-0.532,0-0.914,0-1.296,0c-14.156,0.001-28.313-0.006-42.469,0.024
			c-0.874,0.002-1.359-0.297-1.817-1.01c-2.727-4.249-4.307-8.883-4.822-13.895c-0.025-0.244,0.137-0.586-0.266-0.695
			C0.24,136.8,0.24,102,0.24,67.2z"/>
		<path fill="#024386" d="M11.359,173.368c4.887-8.004,11.219-14.213,20.66-16.501c2.703-0.655,5.457-0.747,8.22-0.367
			c0.574,0.079,0.986,0.144,1.093-0.744c2.355-19.534,7.521-38.332,14.982-56.511C62.76,83.538,71,68.854,81.567,55.522
			c3.48-4.391,7.171-8.598,11.172-12.522c0.624-0.612,0.872-1.242,0.895-2.097c0.113-4.177-0.811-7.962-4.121-10.798
			c-2.747-2.354-6.106-2.999-9.596-3.181c-0.398-0.021-0.797-0.032-1.195-0.053c-0.026-0.001-0.05-0.048-0.148-0.149
			c1.44-1.605,3.178-2.834,5.016-3.933c5.404-3.229,11.345-4.833,17.511-5.75c5.08-0.755,10.189-0.923,15.313-0.743
			c0.681,0.024,1.202-0.169,1.755-0.563c8.675-6.178,17.926-11.214,28.307-13.902c6.396-1.656,12.832-2.142,19.274-0.15
			c3.736,1.155,6.986,3.129,9.753,5.868c0.709,0.702,1.132,0.625,1.843,0.039c2.811-2.314,5.793-4.383,9.079-5.984
			c0.936-0.456,1.906-0.827,2.918-1.049c1.117-0.245,2.193-0.102,2.933,0.865c0.69,0.9,0.305,1.866-0.143,2.712
			c-1.396,2.639-3.526,4.679-5.876,6.404c-6.175,4.532-10.73,10.583-15.643,16.305c-0.129,0.151-0.263,0.312-0.341,0.491
			c-3.219,7.435-8.848,12.937-14.716,18.219c-5.505,4.956-11.506,9.274-17.753,13.242c-0.942,0.598-1.313,1.332-1.522,2.36
			c-1.884,9.275-4.145,18.449-7.7,27.252c-1.017,2.518-2.191,4.968-3.833,7.158c-2.658,3.547-4.915,3.513-7.344-0.169
			c-1.709-2.591-2.418-5.629-3.622-8.446c-0.645-1.508-0.606-1.534-1.924-0.502C96.808,98.221,82.648,110.97,69.948,125.28
			c-7.231,8.147-13.851,16.749-18.735,26.561c-1.336,2.683-2.478,5.446-3.346,8.318c-0.135,0.446-0.368,0.835,0.253,1.212
			c3.411,2.071,5.175,5.35,6.33,8.999c1.525,4.821,1.498,9.76,0.882,14.719c-0.167,1.345-0.415,2.68-0.665,4.27
			c-1.282-2.599-2.555-4.93-4.169-7.061c-2.676-3.532-5.933-6.361-9.934-8.291c-0.551-0.266-0.76-0.553-0.713-1.168
			c0.181-2.38,0.313-4.765,0.462-7.135c-0.486-0.149-0.643,0.206-0.858,0.403c-1.683,1.537-3.387,3.053-5.012,4.65
			c-0.69,0.678-1.401,0.884-2.342,0.862c-5.52-0.132-11.038-0.115-16.491,0.926c-1.367,0.261-2.705,0.668-4.056,1.008
			C11.488,173.493,11.423,173.431,11.359,173.368z"/>
		<path fill="#024386" d="M11.553,173.556c-0.085,0.048-0.205,0.159-0.248,0.135c-0.234-0.133,0.019-0.214,0.054-0.322
			C11.423,173.431,11.488,173.493,11.553,173.556z"/>
		<path fill="#F48220" d="M133.403,142.118c3.084-3.878,6.509-6.219,11.377-5.575c2.584,0.342,4.124,2.179,4.027,4.775
			c-0.016,0.428-0.016,0.82-0.606,0.796c-0.239-0.01-0.479,0.003-0.718,0.003C142.906,142.118,138.328,142.118,133.403,142.118z"/>
		<path fill="#F48220" d="M292.595,187.87c0,2.126-0.288,2.56-1.825,2.612c-0.77,0.026-1.426-0.228-1.659-1.07
			c-0.25-0.9-0.301-1.813,0.036-2.696c0.435-1.139,2.115-1.644,3.121-0.971C292.595,185.966,292.595,185.966,292.595,187.87z"/>
		<path fill="#F48220" d="M339.575,189.162c-0.004,0.994-0.884,1.658-2.152,1.621c-0.768-0.022-1.349-0.315-1.371-1.164
			c-0.023-0.889,1.172-1.435,2.792-1.463C339.706,188.141,339.578,188.65,339.575,189.162z"/>
		<path fill="#F48220" d="M141.888,187.199c-0.237,0-0.484,0.041-0.71-0.009c-0.387-0.086-1.002,0.264-1.118-0.266
			c-0.096-0.438,0.323-0.872,0.729-1.144c0.723-0.483,1.524-0.434,2.269-0.129c0.489,0.2,0.835,0.705,0.689,1.253
			c-0.138,0.518-0.674,0.204-1.029,0.261c-0.27,0.044-0.552,0.009-0.829,0.009C141.888,187.183,141.888,187.191,141.888,187.199z"/>
		<path fill="#F48220" d="M216.229,188.14c0.002-1.937,0.692-2.739,2.218-2.642c0.574,0.036,0.961,0.298,1.277,0.74
			c0.648,0.905,0.597,3.077-0.099,3.954c-0.851,1.073-2.529,0.845-3.151-0.419C216.217,189.25,216.236,188.696,216.229,188.14z"/>
		<path fill="#F48220" d="M267.127,188.049c-0.021,1.986-0.693,2.787-2.076,2.782c-0.733-0.002-1.262-0.34-1.529-0.933
			c-0.527-1.168-0.54-2.392,0.044-3.554c0.363-0.723,1.032-0.889,1.816-0.849c0.737,0.038,1.167,0.428,1.475,1.023
			C267.141,187.066,267.158,187.662,267.127,188.049z"/>
	</g>
</g>
</svg>
