<?xml version="1.0" encoding="utf-8"?>
<!-- Generator: Adobe Illustrator 22.0.0, SVG Export Plug-In . SVG Version: 6.00 Build 0)  -->
<svg version="1.1" id="Layer_1" xmlns="http://www.w3.org/2000/svg" xmlns:xlink="http://www.w3.org/1999/xlink" x="0px" y="0px"
	 viewBox="0 0 38.7 27" style="enable-background:new 0 0 38.7 27;" xml:space="preserve">
<style type="text/css">
	.st0{stroke:#FFFFFF;stroke-width:0.7;}
</style>
<title>Group</title>
<desc>Created with Sketch.</desc>
<g id="Page-1">
	<g id="Landing" transform="translate(-167.000000, -19.000000)">
		<g id="banner-2.0">
			<g id="Group" transform="translate(168.000000, 19.000000)">
				<path id="Shape" class="st0" d="M32.2,10c-0.1-1.5-0.9-2.8-2.3-3.9l-0.5-0.4L29,6.2c-0.7,1.1-1,2.5-0.9,3.7
					c0.1,0.8,0.4,1.7,0.9,2.3c-0.4,0.3-1.7,0.9-3.4,0.9H0.4C-0.1,15.8,0.7,26,12.4,26c8.7,0,15.8-3.9,19.1-12.1
					c1.1,0,3.9,0.2,5.3-2.5l0.4-0.7l-0.5-0.4C35.8,9.8,33.7,9.6,32.2,10z"/>
				<rect id="Rectangle-3" x="16.6" width="3.9" height="3.6"/>
				<rect id="Rectangle-3_1_" x="16.6" y="4.3" width="3.9" height="3.6"/>
				<rect id="Rectangle-3_2_" x="12" y="4.3" width="3.9" height="3.6"/>
				<rect id="Rectangle-3_3_" x="7.4" y="4.3" width="3.9" height="3.6"/>
				<rect id="Rectangle-3_4_" x="2.8" y="8.5" width="3.9" height="3.6"/>
				<rect id="Rectangle-3_5_" x="7.4" y="8.5" width="3.9" height="3.6"/>
				<rect id="Rectangle-3_6_" x="12" y="8.5" width="3.9" height="3.6"/>
				<rect id="Rectangle-3_7_" x="16.6" y="8.5" width="3.9" height="3.6"/>
				<rect id="Rectangle-3_8_" x="21.2" y="8.5" width="3.9" height="3.6"/>
			</g>
		</g>
	</g>
</g>
</svg>
