<?xml version="1.0" encoding="utf-8"?>
<!-- Generator: Adobe Illustrator 22.0.0, SVG Export Plug-In . SVG Version: 6.00 Build 0)  -->
<svg version="1.1" id="Layer_1" xmlns="http://www.w3.org/2000/svg" xmlns:xlink="http://www.w3.org/1999/xlink" x="0px" y="0px"
	 viewBox="0 0 112.2 112.2" style="enable-background:new 0 0 112.2 112.2;" xml:space="preserve">
<style type="text/css">
	.st0{fill:#FFFFFF;}
</style>
<g id="fond">
</g>
<g id="compacte">
</g>
<g id="rectangle">
</g>
<g>
	<g>
		<path d="M112.2,56.1c0,31-25.1,56.1-56.1,56.1C25.1,112.2,0,87.1,0,56.1C0,25.1,25.1,0,56.1,0C87.1,0,112.2,25.1,112.2,56.1z"/>
		<path class="st0" d="M80.6,20.8c-5.7,0.2-10.7,3.3-14.4,7.7c-4.1,4.8-6.8,10.4-8.8,16.2c-3.5-2.9-6.2-6.6-11.9-8.2
			c-4.4-1.3-8.9-0.7-13.1,2.4c-2,1.5-3.4,3.7-4,5.9c-1.7,5.5,1.8,10.4,3.4,12.2l3.4,3.7c0.7,0.7,2.4,2.6,1.6,5.3
			c-0.9,2.9-4.5,4.9-8.1,3.7c-1.6-0.5-4-1.7-3.4-3.4c0.2-0.7,0.7-1.2,1-1.8c0.2-0.5,0.4-0.9,0.4-1.1c0.7-2.2-0.2-5-2.6-5.7
			c-2.2-0.7-4.4-0.1-5.3,2.7c-1,3.2,0.5,8.9,8.7,11.4c9.5,2.9,17.6-2.3,18.7-9c0.7-4.2-1.2-7.4-4.7-11.4l-2.9-3.2
			c-1.7-1.7-2.3-4.7-0.5-6.9c1.5-1.9,3.7-2.7,7.2-1.8c5.2,1.4,7.4,5,11.3,7.9c-1.6,5.2-2.6,10.4-3.5,15.1l-0.6,3.5
			c-2.7,14.4-4.8,22.2-10.3,26.8c-1.1,0.8-2.7,1.9-5,2c-1.2,0-1.6-0.8-1.7-1.2c0-0.9,0.7-1.3,1.2-1.7c0.7-0.4,1.8-1.1,1.7-3.2
			c-0.1-2.5-2.1-4.6-5.1-4.5c-2.2,0.1-5.6,2.2-5.5,6c0.1,4,3.8,6.9,9.4,6.8c3-0.1,9.6-1.3,16.2-9.1c7.6-8.9,9.8-19.2,11.4-26.7
			l1.8-9.9c1,0.1,2.1,0.2,3.2,0.2c9.5,0.2,14.3-4.7,14.3-8.3c0-2.2-1.4-4.3-3.5-4.3c-1.5,0-3.3,1-3.8,3.1c-0.4,2,3,3.8,0.3,5.6
			c-1.9,1.2-5.4,2.1-10.2,1.4l0.9-4.9c1.8-9.2,4-20.6,12.4-20.9c0.6,0,2.9,0,2.9,1.5c0,0.5-0.1,0.6-0.7,1.8
			c-0.6,0.9-0.8,1.6-0.8,2.5c0.1,2.4,1.9,3.9,4.5,3.8c3.5-0.1,4.5-3.5,4.4-5.2C90.6,23.1,86.3,20.6,80.6,20.8z"/>
	</g>
</g>
</svg>
